{"glyphs":{"あ":{"ha":1214,"x_min":0,"x_max":0,"o":"m 111 174 b 285 0 111 78 189 0 l 583 0 b 757 174 679 0 757 78 l 757 328 l 914 328 l 914 189 l 881 189 b 788 94 829 189 788 146 b 881 0 788 42 829 0 l 929 0 b 1103 174 1025 0 1103 78 l 1103 343 b 929 517 1103 439 1025 517 l 528 517 l 528 565 l 914 565 b 1099 749 1015 565 1099 647 b 914 932 1099 850 1015 932 l 522 932 b 433 992 508 968 474 992 b 346 932 394 992 360 968 l 294 932 b 111 749 193 932 111 850 b 294 565 111 647 193 565 l 340 565 l 340 517 l 285 517 b 111 343 189 517 111 439 z m 300 189 l 300 328 l 340 328 l 340 310 b 433 215 340 258 382 215 b 528 310 486 215 528 258 l 528 328 l 568 328 l 568 189 z "},"ぁ":{"ha":967,"x_min":0,"x_max":0,"o":"m 111 131 b 242 0 111 58 169 0 l 465 0 b 596 131 538 0 596 58 l 596 246 l 714 246 l 714 142 l 689 142 b 618 71 650 142 618 110 b 689 0 618 32 650 0 l 725 0 b 856 131 797 0 856 58 l 856 257 b 725 388 856 329 797 388 l 424 388 l 424 425 l 714 425 b 851 563 790 425 851 486 b 714 700 851 638 790 700 l 419 700 b 353 744 408 726 383 744 b 288 700 324 744 299 726 l 249 700 b 111 563 172 700 111 638 b 249 425 111 486 172 425 l 283 425 l 283 388 l 242 388 b 111 257 169 388 111 329 z m 253 142 l 253 246 l 283 246 l 283 233 b 353 163 283 193 314 163 b 424 233 393 163 424 193 l 424 246 l 454 246 l 454 142 z "},"い":{"ha":1218,"x_min":0,"x_max":0,"o":"m 111 704 b 279 44 110 475 108 190 b 399 0 314 14 357 0 b 539 64 450 0 501 22 b 581 161 563 93 576 126 l 651 199 b 690 326 697 224 714 281 b 563 365 665 372 607 390 l 511 338 b 486 447 504 354 493 388 b 478 703 478 526 478 619 l 478 744 b 294 928 478 846 396 928 b 111 744 193 928 111 846 z m 775 807 b 781 674 740 768 743 710 b 915 244 949 522 915 246 b 996 138 908 193 944 144 l 1008 138 b 1101 218 1056 138 1096 171 b 908 814 1104 233 1150 594 b 775 807 869 849 810 846 z "},"ぃ":{"ha":969,"x_min":0,"x_max":0,"o":"m 111 528 b 238 33 110 357 110 143 b 326 0 264 11 296 0 b 432 49 365 0 404 17 b 464 121 450 69 460 94 l 517 150 b 544 246 551 168 564 211 b 449 274 526 279 483 293 l 411 253 b 393 335 406 267 399 290 b 386 526 386 396 386 465 l 386 558 b 249 696 386 635 325 696 b 111 558 172 696 111 635 z m 608 606 b 614 506 582 576 585 532 b 714 183 740 392 714 185 b 775 104 708 144 736 108 b 785 103 778 103 781 103 b 854 164 819 103 850 129 b 708 611 856 175 890 446 b 608 606 679 638 635 635 z "},"う":{"ha":1214,"x_min":0,"x_max":0,"o":"m 163 808 b 346 625 163 707 244 625 l 867 625 b 1050 808 968 625 1050 707 b 867 992 1050 910 968 992 l 346 992 b 163 808 244 992 163 910 z m 111 496 b 204 401 111 444 153 401 l 889 401 b 914 376 903 401 914 390 l 914 214 b 889 189 914 200 903 189 l 304 189 b 210 94 251 189 210 146 b 304 0 210 42 251 0 l 889 0 b 1103 214 1007 0 1103 96 l 1103 376 b 889 590 1103 494 1007 590 l 204 590 b 111 496 153 590 111 549 z "},"ぅ":{"ha":967,"x_min":0,"x_max":0,"o":"m 150 607 b 288 469 150 531 211 469 l 678 469 b 815 607 754 469 815 531 b 678 744 815 683 754 744 l 288 744 b 150 607 211 744 150 683 z m 111 372 b 182 301 111 333 143 301 l 694 301 b 714 282 706 301 714 293 l 714 161 b 694 142 714 150 706 142 l 256 142 b 185 71 217 142 185 110 b 256 0 185 32 217 0 l 694 0 b 856 161 783 0 856 72 l 856 282 b 694 443 856 371 783 443 l 182 443 b 111 372 143 443 111 411 z "},"え":{"ha":1214,"x_min":0,"x_max":0,"o":"m 131 36 b 206 0 149 13 176 0 b 263 19 225 0 246 7 l 528 226 l 724 226 l 724 179 b 903 0 724 81 804 0 l 1008 0 b 1103 94 1061 0 1103 42 b 1008 189 1103 146 1061 189 l 913 189 l 913 240 b 767 413 913 326 850 397 l 926 536 b 1103 713 1022 540 1099 617 l 1103 718 l 1103 719 l 1103 722 l 1103 728 b 919 903 1099 825 1018 903 l 701 903 b 607 992 699 953 657 992 b 513 903 557 992 515 953 l 324 903 b 140 719 222 903 140 821 b 324 536 140 618 222 536 l 619 536 l 147 168 b 131 36 106 136 99 78 z "},"ぇ":{"ha":967,"x_min":0,"x_max":0,"o":"m 126 28 b 182 0 140 10 161 0 b 225 15 197 0 213 6 l 424 169 l 571 169 l 571 135 b 706 0 571 61 632 0 l 785 0 b 856 71 824 0 856 32 b 785 142 856 110 824 142 l 713 142 l 713 181 b 603 310 713 244 665 299 l 724 403 b 856 535 794 406 853 463 l 856 539 l 856 540 l 856 542 b 854 546 856 543 856 544 b 718 678 851 619 792 678 l 554 678 b 483 744 551 715 521 744 b 413 678 446 744 414 715 l 271 678 b 133 540 194 678 133 615 b 271 401 133 464 194 401 l 492 401 l 139 126 b 126 28 107 103 101 58 z "},"お":{"ha":1214,"x_min":0,"x_max":0,"o":"m 111 174 b 285 0 111 78 189 0 l 472 0 b 646 174 568 0 646 78 l 646 328 l 914 328 l 914 189 l 783 189 b 690 94 732 189 690 146 b 783 0 690 42 732 0 l 929 0 b 1103 174 1025 0 1103 78 l 1103 343 b 929 517 1103 439 1025 517 l 646 517 l 646 565 l 681 565 b 864 749 782 565 864 647 b 681 932 864 850 782 932 l 639 932 b 551 992 625 968 592 992 b 464 932 511 992 478 968 l 294 932 b 111 749 193 932 111 850 b 294 565 111 647 193 565 l 457 565 l 457 517 l 285 517 b 111 343 189 517 111 439 z m 914 643 b 1008 549 914 590 957 549 b 1103 643 1061 549 1103 590 l 1103 839 b 1008 933 1103 890 1061 933 b 914 839 957 933 914 890 z m 299 189 l 299 328 l 457 328 l 457 189 z "},"ぉ":{"ha":965,"x_min":0,"x_max":0,"o":"m 111 131 b 240 0 111 58 169 0 l 382 0 b 513 131 454 0 513 58 l 513 246 l 714 246 l 714 142 l 615 142 b 544 71 576 142 544 110 b 615 0 544 32 576 0 l 725 0 b 854 131 796 0 854 58 l 854 257 b 725 388 854 329 796 388 l 513 388 l 513 424 l 539 424 b 676 561 614 424 676 486 b 539 700 676 638 614 700 l 507 700 b 442 744 497 725 471 744 b 376 700 411 744 386 725 l 249 700 b 111 561 172 700 111 638 b 249 424 111 486 172 424 l 371 424 l 371 388 l 240 388 b 111 257 169 388 111 329 z m 714 482 b 785 411 714 443 744 411 b 854 482 824 411 854 443 l 854 629 b 785 700 854 668 824 700 b 714 629 744 700 714 668 z m 253 142 l 253 246 l 371 246 l 371 142 z "},"か":{"ha":1214,"x_min":0,"x_max":0,"o":"m 111 658 b 279 475 111 561 185 483 l 279 94 b 374 0 279 42 321 0 b 468 94 425 0 468 42 l 468 475 l 688 475 l 688 189 l 665 189 b 571 94 614 189 571 146 b 665 0 571 42 614 0 l 782 0 b 876 94 833 0 876 42 l 876 658 b 692 842 876 760 793 842 l 468 842 l 468 897 b 374 992 468 950 425 992 b 279 897 321 992 279 950 l 279 840 b 111 658 185 833 111 754 z m 914 281 b 1008 186 914 229 957 186 b 1103 281 1061 186 1103 229 l 1103 840 b 1008 933 1103 892 1061 933 b 914 840 957 933 914 892 z "},"が":{"ha":1308,"x_min":0,"x_max":0,"o":"m 111 658 b 279 475 111 561 186 483 l 279 94 b 374 0 279 42 322 0 b 468 94 426 0 468 42 l 468 475 l 688 475 l 688 189 l 667 189 b 572 94 614 189 572 146 b 667 0 572 42 614 0 l 782 0 b 876 94 835 0 876 42 l 876 658 b 693 842 876 760 794 842 l 468 842 l 468 897 b 374 992 468 950 426 992 b 279 897 322 992 279 950 l 279 840 b 111 658 186 833 111 754 z m 800 897 b 894 992 800 950 843 992 b 989 897 947 992 989 950 b 894 804 989 846 947 804 b 800 897 843 804 800 846 z m 1008 897 b 1103 992 1008 950 1051 992 b 1197 897 1156 992 1197 950 b 1103 804 1197 846 1156 804 b 1008 897 1051 804 1008 846 z m 915 281 b 1008 186 915 229 957 186 b 1103 281 1061 186 1103 229 l 1103 760 b 999 807 1061 760 1025 778 b 915 761 978 783 949 767 z "},"き":{"ha":1125,"x_min":0,"x_max":0,"o":"m 111 432 b 206 338 111 381 154 338 l 636 338 l 639 310 b 744 228 646 258 693 222 b 825 333 796 235 832 282 l 825 338 l 919 338 b 1014 432 972 338 1014 381 b 919 525 1014 483 972 525 l 800 525 l 794 568 l 831 568 b 1014 750 932 568 1014 650 b 831 933 1014 851 932 933 l 742 933 b 644 986 725 969 686 992 b 571 933 611 982 585 961 l 294 933 b 111 750 193 933 111 851 b 294 568 111 650 193 568 l 606 568 l 611 525 l 206 525 b 111 432 154 525 111 483 z m 124 182 b 306 0 124 82 206 0 l 874 0 b 968 94 925 0 968 42 b 874 188 968 146 925 188 l 311 188 b 217 276 308 238 268 276 b 124 182 165 276 124 235 z "},"ぎ":{"ha":1261,"x_min":0,"x_max":0,"o":"m 111 432 b 204 339 111 381 153 339 l 635 339 l 639 310 b 744 229 646 258 693 222 b 825 335 796 236 832 283 l 825 339 l 919 339 b 1014 432 971 339 1014 381 b 919 526 1014 485 971 526 l 800 526 l 794 568 l 831 568 b 1014 751 932 568 1014 650 b 1013 764 1014 756 1014 760 b 953 804 989 772 968 786 b 849 757 928 775 890 757 b 711 894 772 757 711 818 b 726 957 711 917 717 938 b 643 988 706 979 676 992 b 571 935 611 983 583 963 l 293 935 b 111 751 192 935 111 853 b 293 568 111 650 192 568 l 604 568 l 610 526 l 204 526 b 111 432 153 526 111 485 z m 754 894 b 849 989 754 946 797 989 b 943 894 900 989 943 946 b 849 800 943 843 900 800 b 754 894 797 800 754 843 z m 963 894 b 1056 989 963 946 1004 989 b 1150 894 1108 989 1150 946 b 1056 800 1150 843 1108 800 b 963 894 1004 800 963 843 z m 122 183 b 306 0 122 82 204 0 l 874 0 b 967 94 925 0 967 42 b 874 188 967 146 925 188 l 310 188 b 217 276 307 238 267 276 b 122 183 164 276 122 235 z "},"く":{"ha":903,"x_min":0,"x_max":0,"o":"m 161 363 b 206 328 174 349 189 338 l 600 19 b 657 0 617 7 638 0 b 731 36 685 0 713 13 b 714 165 761 76 754 133 l 440 379 l 736 663 b 743 918 808 732 811 846 b 488 924 674 989 560 992 l 167 617 b 161 363 94 549 92 435 z "},"ぐ":{"ha":1156,"x_min":0,"x_max":0,"o":"m 163 368 b 207 333 175 353 190 342 l 608 19 b 665 0 625 7 646 0 b 739 36 693 0 721 13 b 724 168 771 76 764 136 l 444 385 l 746 672 b 799 768 774 699 792 732 b 743 756 782 760 763 756 b 606 893 668 756 606 818 b 642 986 606 929 619 961 b 494 936 589 992 535 976 l 168 625 b 163 368 94 556 93 440 z m 650 893 b 743 988 650 944 692 988 b 838 893 794 988 838 944 b 743 800 838 842 794 800 b 650 893 692 800 650 842 z m 857 893 b 950 988 857 944 899 988 b 1044 893 1003 988 1044 944 b 950 800 1044 842 1003 800 b 857 893 899 800 857 842 z "},"け":{"ha":1186,"x_min":0,"x_max":0,"o":"m 344 714 b 528 531 344 613 426 531 l 732 531 l 732 200 b 721 189 732 193 726 189 l 633 189 b 539 94 582 189 539 146 b 633 0 539 42 582 0 l 721 0 b 921 200 831 0 921 90 l 921 533 b 1075 714 1008 547 1075 624 b 921 896 1075 806 1008 881 l 921 897 b 826 992 921 950 879 992 b 732 897 775 992 732 950 l 528 897 b 344 714 426 897 344 815 z m 111 199 b 310 0 111 89 200 0 l 372 0 b 467 94 424 0 467 42 b 372 189 467 146 424 189 l 310 189 b 300 199 304 189 300 193 l 300 808 b 206 903 300 861 257 903 b 111 808 153 903 111 861 z "},"げ":{"ha":1281,"x_min":0,"x_max":0,"o":"m 772 897 b 867 992 772 950 814 992 b 961 897 918 992 961 950 b 867 804 961 846 918 804 b 772 897 814 804 772 846 z m 981 897 b 1075 992 981 950 1022 992 b 1169 897 1126 992 1169 950 b 1075 804 1169 846 1126 804 b 981 897 1022 804 981 846 z m 111 199 b 310 0 111 89 200 0 l 372 0 b 467 94 424 0 467 42 b 372 189 467 146 424 189 l 310 189 b 300 199 304 189 300 193 l 300 808 b 206 903 300 861 257 903 b 111 808 154 903 111 861 z m 344 714 b 528 531 344 613 426 531 l 732 531 l 732 200 b 721 189 732 193 728 189 l 633 189 b 540 94 582 189 540 146 b 633 0 540 42 582 0 l 721 0 b 921 200 832 0 921 90 l 921 533 b 1075 714 1008 547 1075 624 b 1069 760 1075 731 1072 746 b 971 807 1029 761 994 779 b 867 760 946 778 908 760 b 729 897 790 760 729 822 l 528 897 b 344 714 426 897 344 815 z "},"こ":{"ha":1214,"x_min":0,"x_max":0,"o":"m 161 754 b 344 571 161 653 243 571 l 726 571 l 700 518 b 742 392 676 471 696 414 b 785 381 756 385 769 381 b 868 433 818 381 851 400 l 946 588 b 1053 754 1010 617 1053 681 b 869 938 1053 856 971 938 l 344 938 b 161 754 243 938 161 856 z m 111 192 b 303 0 111 86 197 0 l 1008 0 b 1103 94 1061 0 1103 42 b 1008 189 1103 146 1061 189 l 303 189 b 300 192 301 189 300 190 l 300 274 b 206 368 300 326 257 368 b 111 274 153 368 111 326 z "},"ご":{"ha":1308,"x_min":0,"x_max":0,"o":"m 800 897 b 894 992 800 950 843 992 b 989 897 947 992 989 950 b 894 804 989 846 947 804 b 800 897 843 804 800 846 z m 1008 897 b 1103 992 1008 950 1051 992 b 1197 897 1156 992 1197 950 b 1103 804 1197 846 1156 804 b 1008 897 1051 804 1008 846 z m 161 754 b 344 571 161 653 243 571 l 728 571 l 700 518 b 742 392 676 471 696 414 b 785 381 756 385 771 381 b 868 433 819 381 853 400 l 947 588 b 1054 754 1010 617 1054 681 b 1053 769 1054 760 1053 764 b 999 807 1032 778 1014 790 b 894 760 974 778 936 760 b 757 897 818 760 757 822 b 763 938 757 911 758 925 l 344 938 b 161 754 243 938 161 856 z m 111 192 b 303 0 111 86 197 0 l 1008 0 b 1103 94 1061 0 1103 42 b 1008 189 1103 146 1061 189 l 303 189 b 300 192 301 189 300 190 l 300 274 b 206 368 300 326 257 368 b 111 274 153 368 111 326 z "},"さ":{"ha":1135,"x_min":0,"x_max":0,"o":"m 122 710 b 304 528 122 610 204 528 l 621 528 l 649 308 b 754 228 656 257 703 221 b 835 333 806 235 842 282 l 810 528 l 840 528 b 1024 710 942 528 1024 610 b 840 893 1024 811 942 893 l 761 893 l 760 904 b 654 985 753 956 706 992 b 572 893 607 979 572 939 l 304 893 b 122 710 204 893 122 811 z m 111 182 b 294 0 111 82 193 0 l 883 0 b 976 93 935 0 976 42 b 883 188 976 146 935 188 l 299 188 b 206 276 296 238 256 276 b 111 182 154 276 111 235 z "},"ざ":{"ha":1272,"x_min":0,"x_max":0,"o":"m 122 713 b 304 529 122 611 204 529 l 621 529 l 650 310 b 756 229 657 258 704 222 b 836 333 807 235 843 282 l 810 529 l 842 529 b 1025 713 943 529 1025 611 b 1017 767 1025 731 1022 750 b 964 804 996 775 978 789 b 860 757 939 775 901 757 b 722 894 785 757 722 818 b 738 957 722 917 728 939 b 656 988 718 979 688 992 b 574 894 607 982 574 942 l 304 894 b 122 713 204 894 122 813 z m 767 894 b 860 989 767 947 808 989 b 954 894 913 989 954 947 b 860 801 954 843 913 801 b 767 894 808 801 767 843 z m 974 894 b 1068 989 974 947 1015 989 b 1161 894 1119 989 1161 947 b 1068 801 1161 843 1119 801 b 974 894 1015 801 974 843 z m 111 183 b 294 0 111 82 193 0 l 885 0 b 979 94 936 0 979 42 b 885 188 979 146 936 188 l 299 188 b 206 276 296 238 256 276 b 111 183 153 276 111 235 z "},"し":{"ha":1092,"x_min":0,"x_max":0,"o":"m 111 183 b 294 0 111 82 193 0 l 749 0 b 981 233 876 0 981 104 l 981 382 b 881 476 981 436 936 479 b 793 379 831 472 793 429 l 793 233 b 749 188 793 208 774 188 l 543 188 b 476 254 507 188 476 218 l 476 801 b 300 989 476 900 400 985 b 111 806 197 992 111 908 z "},"じ":{"ha":1121,"x_min":0,"x_max":0,"o":"m 111 183 b 293 0 111 82 193 0 l 747 0 b 981 233 876 0 981 104 l 981 382 b 881 476 981 436 935 479 b 793 379 831 472 793 429 l 793 233 b 747 188 793 208 772 188 l 543 188 b 476 254 507 188 476 218 l 476 801 b 300 989 476 900 400 985 b 111 806 196 992 111 908 z m 615 894 b 708 989 615 946 657 989 b 803 894 761 989 803 946 b 708 800 803 843 761 800 b 615 894 657 800 615 843 z m 822 894 b 917 989 822 946 864 989 b 1010 894 968 989 1010 946 b 917 800 1010 843 968 800 b 822 894 864 800 822 843 z "},"す":{"ha":1214,"x_min":0,"x_max":0,"o":"m 111 754 b 294 571 111 653 193 571 l 796 571 l 796 531 l 294 531 b 200 436 243 531 200 489 l 200 183 b 294 89 200 132 243 89 l 796 89 b 890 0 799 39 839 0 b 983 94 942 0 983 42 l 983 582 b 1103 754 1053 608 1103 675 b 979 928 1103 835 1051 903 b 890 992 967 965 932 992 b 804 938 851 992 819 969 l 294 938 b 111 754 193 938 111 856 z m 389 278 l 389 342 l 796 342 l 796 278 z "},"ず":{"ha":1308,"x_min":0,"x_max":0,"o":"m 800 897 b 894 992 800 950 843 992 b 989 897 947 992 989 950 b 894 804 989 846 947 804 b 800 897 843 804 800 846 z m 1008 897 b 1103 992 1008 950 1051 992 b 1197 897 1156 992 1197 950 b 1103 804 1197 846 1156 804 b 1008 897 1051 804 1008 846 z m 111 754 b 294 571 111 653 193 571 l 796 571 l 796 531 l 294 531 b 200 436 243 531 200 489 l 200 183 b 294 89 200 132 243 89 l 796 89 b 890 0 799 39 840 0 b 985 94 942 0 985 42 l 985 582 b 1103 754 1054 608 1103 675 l 1103 760 b 999 807 1061 760 1025 778 b 894 760 974 778 936 760 b 757 897 818 760 757 822 b 763 938 757 911 758 925 l 294 938 b 111 754 193 938 111 856 z m 389 278 l 389 342 l 796 342 l 796 278 z "},"せ":{"ha":1214,"x_min":0,"x_max":0,"o":"m 111 654 b 257 475 111 567 174 492 l 257 257 b 514 0 257 115 372 0 l 949 0 b 1043 94 1001 0 1043 42 b 949 189 1043 146 1001 189 l 514 189 b 446 257 476 189 446 219 l 446 471 l 763 471 l 763 390 b 856 296 763 338 804 296 b 950 390 908 296 950 338 l 950 474 b 1103 654 1038 489 1103 564 b 950 836 1103 746 1038 821 l 950 897 b 856 992 950 950 908 992 b 763 897 804 992 763 950 l 763 839 l 446 839 l 446 897 b 351 992 446 950 404 992 b 257 897 300 992 257 950 l 257 835 b 111 654 174 818 111 743 z "},"ぜ":{"ha":1310,"x_min":0,"x_max":0,"o":"m 111 654 b 257 475 111 567 174 492 l 257 257 b 514 0 257 115 372 0 l 949 0 b 1043 94 1001 0 1043 42 b 949 189 1043 146 1001 189 l 514 189 b 446 257 476 189 446 219 l 446 471 l 761 471 l 761 390 b 856 296 761 338 804 296 b 950 390 908 296 950 338 l 950 474 b 1103 654 1036 489 1103 564 b 1065 765 1103 696 1089 735 b 1000 807 1039 774 1017 788 b 896 760 975 778 938 760 b 771 839 840 760 793 792 l 446 839 l 446 897 b 351 992 446 950 403 992 b 257 897 299 992 257 950 l 257 835 b 111 654 174 818 111 743 z m 801 897 b 896 992 801 950 843 992 b 990 897 947 992 990 950 b 896 804 990 846 947 804 b 801 897 843 804 801 846 z m 1010 897 b 1104 992 1010 950 1051 992 b 1199 897 1156 992 1199 950 b 1104 804 1199 846 1156 804 b 1010 897 1051 804 1010 846 z "},"そ":{"ha":1214,"x_min":0,"x_max":0,"o":"m 111 407 b 206 313 111 354 153 313 l 243 313 l 236 293 b 254 94 208 228 215 154 b 431 0 294 35 360 0 l 979 0 b 1074 94 1031 0 1074 42 b 979 189 1074 146 1031 189 l 431 189 b 411 199 421 189 415 194 b 410 221 408 204 406 211 l 447 313 l 1008 313 b 1103 407 1061 313 1103 354 b 1008 501 1103 458 1061 501 l 825 501 l 876 625 b 1053 808 975 629 1053 710 b 869 992 1053 910 971 992 l 344 992 b 161 808 243 992 161 910 b 344 625 161 707 243 625 l 672 625 l 621 501 l 206 501 b 111 407 153 501 111 458 z "},"ぞ":{"ha":1308,"x_min":0,"x_max":0,"o":"m 111 407 b 206 313 111 354 153 313 l 244 313 l 236 293 b 256 94 208 228 215 154 b 431 0 294 35 360 0 l 979 0 b 1074 94 1032 0 1074 42 b 979 189 1074 146 1032 189 l 431 189 b 413 199 421 189 415 194 b 410 221 408 204 406 211 l 449 313 l 1008 313 b 1103 407 1061 313 1103 354 b 1008 501 1103 458 1061 501 l 825 501 l 876 625 b 1050 771 963 628 1033 690 b 999 807 1031 779 1013 792 b 894 760 974 778 936 760 b 757 897 818 760 757 822 b 794 992 757 935 771 968 l 344 992 b 161 808 243 992 161 910 b 344 625 161 707 243 625 l 672 625 l 621 501 l 206 501 b 111 407 153 501 111 458 z m 800 897 b 894 992 800 950 843 992 b 989 897 947 992 989 950 b 894 804 989 846 947 804 b 800 897 843 804 800 846 z m 1008 897 b 1103 992 1008 950 1051 992 b 1197 897 1156 992 1197 950 b 1103 804 1197 846 1156 804 b 1008 897 1051 804 1008 846 z "},"た":{"ha":1214,"x_min":0,"x_max":0,"o":"m 111 749 b 200 592 111 682 147 624 l 200 94 b 294 0 200 42 243 0 b 389 94 347 0 389 42 l 389 565 l 914 565 b 1099 749 1015 565 1099 647 b 914 932 1099 850 1015 932 l 382 932 b 294 992 368 968 335 992 b 200 907 246 992 206 954 b 111 749 147 875 111 817 z m 444 425 b 539 331 444 372 486 331 l 1008 331 b 1103 425 1061 331 1103 372 b 1008 519 1103 476 1061 519 l 539 519 b 444 425 486 519 444 476 z m 444 179 b 624 0 444 81 525 0 l 1008 0 b 1103 94 1061 0 1103 42 b 1008 189 1103 146 1061 189 l 633 189 l 633 208 b 539 303 633 261 590 303 b 444 208 486 303 444 261 z "},"だ":{"ha":1308,"x_min":0,"x_max":0,"o":"m 111 749 b 200 592 111 682 147 624 l 200 94 b 294 0 200 42 243 0 b 389 94 347 0 389 42 l 389 565 l 915 565 b 1099 749 1017 565 1099 647 b 1097 760 1099 753 1099 757 b 999 807 1058 761 1024 779 b 894 760 974 778 936 760 b 757 897 818 760 757 822 b 761 932 757 910 758 921 l 382 932 b 294 992 368 968 335 992 b 201 907 246 992 206 954 b 111 749 147 875 111 817 z m 800 897 b 894 992 800 950 843 992 b 989 897 947 992 989 950 b 894 804 989 846 947 804 b 800 897 843 804 800 846 z m 1008 897 b 1103 992 1008 950 1051 992 b 1197 897 1156 992 1197 950 b 1103 804 1197 846 1156 804 b 1008 897 1051 804 1008 846 z m 444 425 b 539 331 444 372 488 331 l 1008 331 b 1103 425 1061 331 1103 372 b 1008 519 1103 476 1061 519 l 539 519 b 444 425 488 519 444 476 z m 444 179 b 625 0 444 81 525 0 l 1008 0 b 1103 94 1061 0 1103 42 b 1008 189 1103 146 1061 189 l 633 189 l 633 208 b 539 303 633 261 592 303 b 444 208 488 303 444 261 z "},"ち":{"ha":1210,"x_min":0,"x_max":0,"o":"m 111 715 b 275 535 111 621 182 543 l 260 388 b 344 285 256 336 293 290 l 347 285 l 906 285 b 910 281 908 285 910 282 l 910 192 b 906 188 910 190 908 188 l 354 188 b 260 94 301 188 260 146 b 354 0 260 42 301 0 l 906 0 b 1099 192 1011 0 1099 86 l 1099 281 b 906 472 1099 386 1011 472 l 457 472 l 463 533 l 915 533 b 1099 715 1017 533 1099 615 b 915 899 1099 817 1017 899 l 497 899 b 413 988 494 944 458 982 b 310 903 360 992 314 954 l 310 899 l 293 899 b 111 715 192 899 111 817 z "},"ぢ":{"ha":1303,"x_min":0,"x_max":0,"o":"m 111 715 b 275 535 111 621 183 543 l 261 388 b 354 285 254 335 300 285 l 907 285 b 911 281 908 285 911 282 l 911 192 b 907 188 911 190 908 188 l 354 188 b 260 94 303 188 260 146 b 354 0 260 42 303 0 l 907 0 b 1099 192 1013 0 1099 86 l 1099 281 b 907 472 1099 386 1013 472 l 457 472 l 464 533 l 915 533 b 1099 715 1017 533 1099 615 b 1093 757 1099 731 1097 743 b 994 804 1054 758 1019 776 b 892 757 969 775 932 757 b 754 893 815 757 754 818 l 754 899 l 497 899 b 413 988 494 944 460 982 b 310 903 361 992 315 954 l 310 899 l 293 899 b 111 715 193 899 111 817 z m 797 893 b 892 988 797 946 839 988 b 985 893 943 988 985 946 b 892 800 985 842 943 800 b 797 893 839 800 797 842 z m 1004 893 b 1099 988 1004 946 1047 988 b 1192 893 1150 988 1192 946 b 1099 800 1192 842 1150 800 b 1004 893 1047 800 1004 842 z "},"つ":{"ha":1214,"x_min":0,"x_max":0,"o":"m 111 676 b 294 486 107 572 190 486 l 843 486 b 914 414 882 486 914 454 l 914 300 b 843 228 914 260 882 228 l 297 228 b 200 140 247 228 204 190 b 294 40 197 85 240 40 l 843 40 b 1103 300 986 40 1103 156 l 1103 518 b 768 853 1103 703 953 853 l 299 853 b 111 676 200 853 115 776 z "},"っ":{"ha":967,"x_min":0,"x_max":0,"o":"m 111 507 b 249 364 108 429 171 364 l 660 364 b 714 311 690 364 714 340 l 714 225 b 660 171 714 194 690 171 l 251 171 b 178 106 214 171 181 143 b 249 29 175 64 208 29 l 660 29 b 856 225 768 29 856 117 l 856 389 b 604 640 856 528 743 640 l 253 640 b 111 507 178 640 114 582 z "},"づ":{"ha":1308,"x_min":0,"x_max":0,"o":"m 800 897 b 894 992 800 950 843 992 b 989 897 947 992 989 950 b 894 804 989 846 947 804 b 800 897 843 804 800 846 z m 1008 897 b 1103 992 1008 950 1051 992 b 1197 897 1156 992 1197 950 b 1103 804 1197 846 1156 804 b 1008 897 1051 804 1008 846 z m 111 676 b 294 486 107 572 192 486 l 843 486 b 915 414 883 486 915 454 l 915 300 b 843 228 915 260 883 228 l 297 228 b 200 140 247 228 204 190 b 294 40 197 85 240 40 l 843 40 b 1103 300 986 40 1103 156 l 1103 518 b 972 783 1103 626 1051 722 b 894 760 950 769 924 760 b 764 853 835 760 783 799 l 299 853 b 111 676 200 853 115 776 z "},"て":{"ha":1214,"x_min":0,"x_max":0,"o":"m 111 808 b 294 625 111 707 193 625 l 375 625 b 200 283 267 532 200 413 b 607 0 200 0 485 0 l 969 0 b 1064 94 1021 0 1064 42 b 969 189 1064 146 1021 189 l 607 189 b 389 283 389 189 389 231 b 532 510 389 363 440 446 b 919 625 635 583 776 625 b 1103 808 1021 625 1103 707 b 919 992 1103 910 1021 992 l 294 992 b 111 808 193 992 111 910 z "},"で":{"ha":1310,"x_min":0,"x_max":0,"o":"m 111 808 b 294 625 111 707 193 625 l 375 625 b 200 283 267 532 200 413 b 607 0 200 0 485 0 l 969 0 b 1063 94 1021 0 1063 42 b 969 189 1063 146 1021 189 l 607 189 b 389 283 389 189 389 231 b 532 510 389 363 440 446 b 919 625 635 583 775 625 b 1096 760 1004 625 1075 682 b 1000 807 1058 763 1024 781 b 896 760 975 778 938 760 b 757 897 819 760 757 822 b 794 992 757 935 772 968 l 294 992 b 111 808 193 992 111 910 z m 801 897 b 896 992 801 950 843 992 b 990 897 947 992 990 950 b 896 804 990 846 947 804 b 801 897 843 804 801 846 z m 1010 897 b 1104 992 1010 950 1051 992 b 1199 897 1156 992 1199 950 b 1104 804 1199 846 1156 804 b 1010 897 1051 804 1010 846 z "},"と":{"ha":1217,"x_min":0,"x_max":0,"o":"m 111 260 b 372 0 111 117 228 0 l 1010 0 b 1104 100 1064 0 1107 46 b 1007 189 1100 150 1057 189 l 372 189 b 300 260 332 189 300 221 l 300 354 b 372 426 300 394 332 426 l 921 426 b 1103 597 1018 426 1097 501 b 1106 615 1104 603 1106 608 l 1106 808 b 1011 903 1106 861 1063 903 b 917 808 958 903 917 861 l 917 793 l 450 793 l 450 897 b 356 992 450 950 408 992 b 263 897 304 992 263 950 l 263 738 b 111 458 171 678 111 575 z "},"ど":{"ha":1310,"x_min":0,"x_max":0,"o":"m 111 260 b 372 0 111 117 228 0 l 1010 0 b 1104 100 1064 0 1107 46 b 1007 189 1100 150 1057 189 l 372 189 b 300 260 332 189 300 221 l 300 354 b 372 426 300 394 332 426 l 921 426 b 1103 597 1017 426 1097 501 b 1106 615 1104 603 1106 608 l 1106 760 b 1001 807 1064 760 1026 778 b 897 760 975 778 939 760 b 807 793 863 760 831 772 l 450 793 l 450 897 b 356 992 450 950 408 992 b 261 897 304 992 261 950 l 261 738 b 111 458 171 678 111 575 z m 803 897 b 897 992 803 950 844 992 b 990 897 949 992 990 950 b 897 804 990 846 949 804 b 803 897 844 804 803 846 z m 1011 897 b 1106 992 1011 950 1053 992 b 1199 897 1157 992 1199 950 b 1106 804 1199 846 1157 804 b 1011 897 1053 804 1011 846 z "},"な":{"ha":1214,"x_min":0,"x_max":0,"o":"m 111 749 b 200 592 111 682 146 624 l 200 94 b 294 0 200 42 242 0 b 389 94 346 0 389 42 l 389 565 l 568 565 b 751 749 669 565 751 647 b 568 932 751 850 669 932 l 382 932 b 294 992 368 968 333 992 b 200 907 244 992 204 954 b 111 749 147 875 111 817 z m 444 94 b 539 0 444 42 486 0 l 889 0 b 983 94 942 0 983 42 l 983 253 l 1008 253 b 1103 347 1061 253 1103 294 b 1008 442 1103 399 1061 442 l 983 442 l 983 654 l 1008 654 b 1103 749 1061 654 1103 697 b 1008 843 1103 801 1061 843 l 889 843 b 794 749 838 843 794 801 l 794 442 l 539 442 b 444 347 486 442 444 399 z m 633 189 l 633 253 l 794 253 l 794 189 z "},"に":{"ha":1214,"x_min":0,"x_max":0,"o":"m 111 94 b 204 0 111 42 153 0 b 299 94 257 0 299 42 l 299 897 b 204 992 299 950 257 992 b 111 897 153 992 111 950 z m 357 754 b 540 571 357 653 439 571 l 828 571 l 814 524 b 875 406 799 475 826 422 b 904 401 885 403 894 401 b 993 468 944 401 981 428 l 1040 617 b 1103 754 1078 650 1103 699 b 919 938 1103 856 1021 938 l 540 938 b 357 754 439 938 357 856 z m 350 192 b 542 0 350 86 436 0 l 1008 0 b 1103 94 1061 0 1103 42 b 1008 189 1103 146 1061 189 l 542 189 b 539 192 540 189 539 190 l 539 274 b 444 368 539 326 496 368 b 350 274 392 368 350 326 z "},"ぬ":{"ha":1211,"x_min":0,"x_max":0,"o":"m 111 174 b 283 0 111 78 189 0 l 474 0 b 646 174 568 0 646 78 l 646 564 l 882 564 l 882 465 l 767 465 b 672 371 715 465 672 422 l 672 94 b 767 0 672 42 715 0 l 976 0 b 1071 94 1028 0 1071 42 l 1071 303 b 1100 371 1089 319 1100 344 b 1071 439 1100 397 1089 422 l 1071 747 b 888 931 1071 849 989 931 l 639 931 b 553 989 625 965 592 989 b 465 931 513 989 479 965 l 389 931 b 294 989 374 967 336 992 b 208 910 250 986 215 951 b 111 764 156 881 117 828 z m 299 188 l 299 258 b 342 249 311 253 326 249 l 347 249 b 435 350 400 253 439 297 l 419 564 l 458 564 l 458 188 z m 861 188 l 861 276 l 882 276 l 882 188 z "},"ね":{"ha":1214,"x_min":0,"x_max":0,"o":"m 111 233 b 200 139 111 183 150 142 l 200 94 b 294 0 200 42 243 0 b 389 94 347 0 389 42 l 389 413 l 469 522 b 557 567 490 550 522 567 l 844 567 l 844 442 l 600 442 b 506 347 549 442 506 399 l 506 94 b 600 0 506 42 549 0 l 939 0 b 1033 94 992 0 1033 42 l 1033 256 b 1103 347 1074 267 1103 304 b 1033 438 1103 390 1074 426 l 1033 750 l 1033 753 l 1033 756 b 846 933 1031 856 946 933 l 632 933 b 497 874 579 933 531 910 b 483 858 492 869 488 865 l 389 731 l 389 897 b 294 992 389 950 347 992 b 200 897 243 992 200 950 l 200 831 b 111 738 150 829 111 788 b 200 643 111 688 150 646 l 200 326 b 111 233 150 325 111 283 z m 694 189 l 694 253 l 844 253 l 844 189 z "},"の":{"ha":1215,"x_min":0,"x_max":0,"o":"m 111 174 b 285 0 111 78 189 0 l 583 0 b 757 174 679 0 757 78 l 757 567 l 917 567 l 917 189 l 882 189 b 789 94 831 189 789 146 b 882 0 789 42 831 0 l 931 0 b 1104 174 1026 0 1104 78 l 1104 744 b 1103 764 1104 750 1104 757 b 919 933 1096 858 1017 933 l 294 933 b 113 765 199 933 121 860 b 111 754 111 763 111 758 z m 300 189 l 300 567 l 569 567 l 569 189 z "},"は":{"ha":1214,"x_min":0,"x_max":0,"o":"m 353 714 b 536 531 353 613 435 531 l 761 531 l 761 442 l 464 442 b 369 347 413 442 369 399 l 369 94 b 464 0 369 42 413 0 l 854 0 b 949 94 907 0 949 42 l 949 253 l 1008 253 b 1103 347 1061 253 1103 294 b 1008 442 1103 399 1061 442 l 949 442 l 949 533 b 1103 714 1036 547 1103 624 b 949 896 1103 806 1036 881 l 949 897 b 854 992 949 950 907 992 b 761 897 803 992 761 950 l 536 897 b 353 714 435 897 353 815 z m 111 94 b 206 0 111 42 153 0 b 299 94 257 0 299 42 l 299 808 b 206 903 299 861 257 903 b 111 808 153 903 111 861 z m 558 189 l 558 253 l 761 253 l 761 189 z "},"ば":{"ha":1308,"x_min":0,"x_max":0,"o":"m 800 897 b 894 992 800 950 843 992 b 989 897 947 992 989 950 b 894 804 989 846 947 804 b 800 897 843 804 800 846 z m 1008 897 b 1103 992 1008 950 1051 992 b 1197 897 1156 992 1197 950 b 1103 804 1197 846 1156 804 b 1008 897 1051 804 1008 846 z m 111 94 b 206 0 111 42 153 0 b 300 94 257 0 300 42 l 300 808 b 206 903 300 861 257 903 b 111 808 153 903 111 861 z m 353 714 b 536 531 353 613 435 531 l 761 531 l 761 442 l 464 442 b 369 347 413 442 369 399 l 369 94 b 464 0 369 42 413 0 l 856 0 b 949 94 907 0 949 42 l 949 253 l 1008 253 b 1103 347 1061 253 1103 294 b 1008 442 1103 399 1061 442 l 949 442 l 949 533 b 1103 714 1036 547 1103 624 b 1097 760 1103 731 1101 746 b 999 807 1058 761 1024 779 b 894 760 974 778 936 760 b 757 897 818 760 757 822 l 536 897 b 353 714 435 897 353 815 z m 558 189 l 558 253 l 761 253 l 761 189 z "},"ぱ":{"ha":1272,"x_min":0,"x_max":0,"o":"m 864 903 b 1013 754 864 821 931 754 b 1161 903 1094 754 1161 821 b 1013 1050 1161 985 1094 1050 b 864 903 931 1050 864 985 z m 353 714 b 536 531 353 613 435 531 l 760 531 l 760 442 l 464 442 b 369 347 411 442 369 399 l 369 94 b 464 0 369 42 411 0 l 854 0 b 949 94 906 0 949 42 l 949 253 l 1008 253 b 1101 347 1060 253 1101 294 b 1008 442 1101 399 1060 442 l 949 442 l 949 533 b 1101 714 1035 547 1101 622 l 1101 732 b 1013 710 1075 718 1044 710 b 819 903 907 710 819 796 b 842 990 819 935 828 964 b 760 897 796 985 760 946 l 536 897 b 353 714 435 897 353 815 z m 954 903 b 1013 961 954 935 981 961 b 1072 903 1046 961 1072 935 b 1013 843 1072 869 1046 843 b 954 903 981 843 954 869 z m 111 94 b 204 0 111 42 153 0 b 299 94 257 0 299 42 l 299 808 b 204 903 299 860 257 903 b 111 808 153 903 111 860 z m 558 189 l 558 253 l 760 253 l 760 189 z "},"ひ":{"ha":1214,"x_min":0,"x_max":0,"o":"m 111 839 b 206 744 111 786 154 744 l 250 744 l 250 183 b 433 0 250 82 332 0 l 781 0 b 964 183 882 0 964 82 l 964 744 l 1010 744 b 1103 839 1061 744 1103 786 b 1010 932 1103 890 1061 932 l 871 932 b 776 839 818 932 776 890 l 776 367 l 439 367 l 439 839 b 344 932 439 890 397 932 l 206 932 b 111 839 154 932 111 890 z "},"び":{"ha":1308,"x_min":0,"x_max":0,"o":"m 801 897 b 896 992 801 950 843 992 b 989 897 947 992 989 950 b 896 804 989 846 947 804 b 801 897 843 804 801 846 z m 1010 897 b 1104 992 1010 950 1051 992 b 1197 897 1156 992 1197 950 b 1104 804 1197 846 1156 804 b 1010 897 1051 804 1010 846 z m 111 839 b 206 744 111 786 154 744 l 250 744 l 250 183 b 433 0 250 82 333 0 l 781 0 b 964 174 879 0 960 76 b 965 183 965 176 965 181 l 965 744 l 1010 744 b 1068 765 1032 744 1051 751 b 1000 807 1042 772 1017 788 b 896 760 974 778 938 760 b 776 828 844 760 800 788 l 776 367 l 439 367 l 439 839 b 344 932 439 890 397 932 l 206 932 b 111 839 154 932 111 890 z "},"ぴ":{"ha":1268,"x_min":0,"x_max":0,"o":"m 861 903 b 1010 754 861 821 928 754 b 1157 903 1090 754 1157 821 b 1010 1050 1157 985 1090 1050 b 861 903 928 1050 861 985 z m 950 903 b 1010 961 950 935 976 961 b 1068 903 1042 961 1068 935 b 1010 843 1068 869 1042 843 b 950 903 976 843 950 869 z m 111 838 b 206 743 111 786 154 743 l 250 743 l 250 183 b 433 0 250 82 332 0 l 781 0 b 964 174 879 0 958 76 l 964 715 b 817 903 879 735 817 811 l 817 915 b 776 838 792 899 776 871 l 776 367 l 439 367 l 439 838 b 344 932 439 890 397 932 l 206 932 b 111 838 154 932 111 890 z "},"ふ":{"ha":1214,"x_min":0,"x_max":0,"o":"m 161 808 b 344 625 161 707 243 625 l 865 625 l 865 576 b 960 482 865 524 907 482 b 1054 576 1011 482 1054 524 l 1054 808 b 871 992 1054 910 972 992 l 344 992 b 161 808 243 992 161 910 z m 356 94 b 449 0 356 42 397 0 l 622 0 b 832 210 738 0 832 94 l 832 326 b 588 571 832 461 722 571 l 504 571 b 410 476 453 571 410 528 b 504 382 410 424 453 382 l 588 382 b 643 326 618 382 643 357 l 643 210 b 622 189 643 197 635 189 l 449 189 b 356 94 397 189 356 146 z m 111 94 b 206 0 111 42 154 0 b 300 94 258 0 300 42 l 300 340 b 206 435 300 392 258 435 b 111 340 154 435 111 392 z m 915 94 b 1010 0 915 42 957 0 b 1103 94 1061 0 1103 42 l 1103 340 b 1010 435 1103 392 1061 435 b 915 340 957 435 915 392 z "},"ぶ":{"ha":1308,"x_min":0,"x_max":0,"o":"m 160 808 b 343 625 160 707 243 625 l 864 625 l 864 576 b 958 482 864 524 907 482 b 1053 576 1011 482 1053 524 l 1053 769 b 999 807 1032 778 1013 790 b 894 760 974 778 936 760 b 757 897 818 760 757 822 b 793 992 757 935 771 968 l 343 992 b 160 808 243 992 160 910 z m 800 897 b 894 992 800 950 842 992 b 989 897 946 992 989 950 b 894 804 989 846 946 804 b 800 897 842 804 800 846 z m 1008 897 b 1103 992 1008 950 1050 992 b 1197 897 1154 992 1197 950 b 1103 804 1197 846 1154 804 b 1008 897 1050 804 1008 846 z m 354 94 b 449 0 354 42 396 0 l 622 0 b 831 210 738 0 831 94 l 831 326 b 588 571 831 461 722 571 l 504 571 b 410 476 451 571 410 528 b 504 382 410 424 451 382 l 588 382 b 643 326 618 382 643 357 l 643 210 b 622 189 643 197 633 189 l 449 189 b 354 94 396 189 354 146 z m 111 94 b 204 0 111 42 153 0 b 299 94 257 0 299 42 l 299 340 b 204 433 299 392 257 433 b 111 340 153 433 111 392 z m 914 94 b 1008 0 914 42 957 0 b 1103 94 1061 0 1103 42 l 1103 340 b 1008 433 1103 392 1061 433 b 914 340 957 433 914 392 z "},"ぷ":{"ha":1268,"x_min":0,"x_max":0,"o":"m 860 897 b 1008 749 860 815 926 749 b 1157 897 1090 749 1157 815 b 1008 1046 1157 979 1090 1046 b 860 897 926 1046 860 979 z m 161 808 b 344 625 161 707 243 625 l 865 625 l 865 576 b 958 482 865 524 907 482 b 1053 576 1011 482 1053 524 l 1053 710 b 1008 704 1039 707 1024 704 b 815 897 901 704 815 792 b 840 992 815 932 825 964 l 344 992 b 161 808 243 992 161 910 z m 950 897 b 1008 957 950 931 976 957 b 1068 897 1042 957 1068 931 b 1008 839 1068 865 1042 839 b 950 897 976 839 950 865 z m 354 94 b 449 0 354 42 397 0 l 622 0 b 831 208 738 0 831 94 l 831 326 b 588 571 831 461 722 571 l 504 571 b 410 476 451 571 410 528 b 504 382 410 424 451 382 l 588 382 b 643 326 618 382 643 357 l 643 208 b 622 189 643 197 633 189 l 449 189 b 354 94 397 189 354 146 z m 111 94 b 206 0 111 42 153 0 b 300 94 257 0 300 42 l 300 340 b 206 433 300 392 257 433 b 111 340 153 433 111 392 z m 914 94 b 1008 0 914 42 957 0 b 1103 94 1061 0 1103 42 l 1103 340 b 1008 433 1103 392 1061 433 b 914 340 957 433 914 392 z "},"へ":{"ha":1214,"x_min":0,"x_max":0,"o":"m 132 335 b 294 236 164 271 228 236 b 379 257 324 236 353 242 b 625 521 478 308 569 411 l 929 43 b 1008 0 947 15 978 0 b 1060 15 1026 0 1043 4 b 1088 144 1103 43 1117 101 l 671 800 b 500 917 644 868 578 917 b 317 735 400 917 318 836 b 210 582 313 696 251 604 b 132 335 119 535 85 424 z "},"べ":{"ha":1214,"x_min":0,"x_max":0,"o":"m 132 335 b 294 236 165 271 229 236 b 379 257 324 236 353 242 b 625 521 478 308 569 411 l 929 43 b 1008 0 947 15 978 0 b 1060 15 1026 0 1043 4 b 1089 144 1103 43 1117 101 l 750 676 b 711 671 738 672 725 671 b 574 808 635 671 574 732 b 599 889 574 839 582 865 b 500 917 571 907 536 917 b 317 735 400 917 318 836 b 210 582 313 696 251 604 b 132 335 119 535 85 424 z m 617 808 b 711 903 617 861 660 903 b 806 808 764 903 806 861 b 711 714 806 757 764 714 b 617 808 660 714 617 757 z m 825 808 b 919 903 825 861 868 903 b 1014 808 972 903 1014 861 b 919 714 1014 757 972 714 b 825 808 868 714 825 757 z "},"ぺ":{"ha":1215,"x_min":0,"x_max":0,"o":"m 772 808 b 919 660 772 726 838 660 b 1068 808 1001 660 1068 726 b 919 957 1068 890 1001 957 b 772 808 838 957 772 890 z m 132 335 b 294 236 165 271 229 236 b 381 257 324 236 353 242 b 626 521 478 308 569 411 l 929 43 b 1010 0 947 15 978 0 b 1060 15 1026 0 1044 4 b 1089 144 1104 43 1117 101 l 671 800 b 501 917 644 868 578 917 b 317 735 400 917 318 836 b 210 582 313 696 253 604 b 132 335 119 535 85 424 z m 861 808 b 919 868 861 842 888 868 b 979 808 953 868 979 842 b 919 750 979 776 953 750 b 861 808 888 750 861 776 z "},"ほ":{"ha":1214,"x_min":0,"x_max":0,"o":"m 343 808 b 526 625 343 707 425 625 l 761 625 l 761 590 l 482 590 b 400 508 436 590 400 553 b 482 426 400 463 436 426 l 761 426 l 761 392 l 464 392 b 369 297 413 392 369 350 l 369 94 b 464 0 369 42 413 0 l 854 0 b 949 94 907 0 949 42 l 949 203 l 1008 203 b 1103 297 1061 203 1103 246 b 1008 392 1103 350 1061 392 l 949 392 l 949 426 l 992 426 b 1074 508 1036 426 1074 463 b 992 590 1074 553 1036 590 l 949 590 l 949 628 b 1103 808 1036 642 1103 717 b 919 992 1103 910 1021 992 l 526 992 b 343 808 425 992 343 910 z m 111 94 b 206 0 111 42 153 0 b 299 94 257 0 299 42 l 299 808 b 206 903 299 861 257 903 b 111 808 153 903 111 861 z m 558 163 l 558 229 l 761 229 l 761 163 z "},"ぼ":{"ha":1310,"x_min":0,"x_max":0,"o":"m 343 808 b 526 625 343 707 425 625 l 760 625 l 760 590 l 481 590 b 399 508 436 590 399 553 b 481 426 399 463 436 426 l 760 426 l 760 392 l 464 392 b 369 297 411 392 369 350 l 369 94 b 464 0 369 42 411 0 l 854 0 b 949 94 907 0 949 42 l 949 203 l 1008 203 b 1103 297 1060 203 1103 246 b 1008 392 1103 350 1060 392 l 949 392 l 949 426 l 992 426 b 1072 508 1036 426 1072 463 b 992 590 1072 553 1036 590 l 949 590 l 949 628 b 1096 760 1019 639 1078 692 b 1000 807 1057 763 1024 781 b 896 760 974 778 938 760 b 757 897 819 760 757 822 b 794 992 757 935 772 968 l 526 992 b 343 808 425 992 343 910 z m 801 897 b 896 992 801 950 843 992 b 990 897 947 992 990 950 b 896 804 990 846 947 804 b 801 897 843 804 801 846 z m 1010 897 b 1104 992 1010 950 1051 992 b 1199 897 1156 992 1199 950 b 1104 804 1199 846 1156 804 b 1010 897 1051 804 1010 846 z m 111 94 b 204 0 111 42 153 0 b 299 94 257 0 299 42 l 299 808 b 204 903 299 861 257 903 b 111 808 153 903 111 861 z m 558 163 l 558 229 l 760 229 l 760 163 z "},"ぽ":{"ha":1268,"x_min":0,"x_max":0,"o":"m 861 897 b 1010 749 861 815 928 749 b 1157 897 1092 749 1157 815 b 1010 1046 1157 979 1092 1046 b 861 897 928 1046 861 979 z m 343 808 b 526 625 343 707 425 625 l 760 625 l 760 590 l 481 590 b 400 508 436 590 400 553 b 481 426 400 463 436 426 l 760 426 l 760 392 l 464 392 b 369 297 413 392 369 349 l 369 94 b 464 0 369 42 413 0 l 854 0 b 949 94 907 0 949 42 l 949 203 l 1008 203 b 1103 297 1060 203 1103 246 b 1008 392 1103 349 1060 392 l 949 392 l 949 426 l 990 426 b 1072 508 1036 426 1072 463 b 990 590 1072 553 1036 590 l 949 590 l 949 628 b 1078 718 1004 636 1051 671 b 1010 704 1057 710 1033 704 b 817 897 903 704 817 792 b 842 992 817 932 826 964 l 526 992 b 343 808 425 992 343 910 z m 950 897 b 1010 957 950 931 976 957 b 1068 897 1042 957 1068 931 b 1010 839 1068 865 1042 839 b 950 897 976 839 950 865 z m 111 94 b 206 0 111 42 153 0 b 299 94 257 0 299 42 l 299 808 b 206 903 299 860 257 903 b 111 808 153 903 111 860 z m 558 161 l 558 229 l 760 229 l 760 161 z "},"ま":{"ha":1214,"x_min":0,"x_max":0,"o":"m 111 768 b 294 585 111 667 193 585 l 667 585 l 667 556 l 288 556 b 206 474 242 556 206 518 b 288 392 206 428 242 392 l 667 392 l 667 363 l 250 363 b 156 268 197 363 156 319 l 156 94 b 250 0 156 42 197 0 l 761 0 b 856 94 813 0 856 42 l 856 174 l 1008 174 b 1103 268 1061 174 1103 215 b 1008 363 1103 319 1061 363 l 856 363 l 856 392 l 926 392 b 1008 474 972 392 1008 428 b 926 556 1008 518 972 556 l 856 556 l 856 585 l 919 585 b 1103 768 1021 585 1103 667 b 919 951 1103 869 1021 951 l 838 951 b 761 992 821 976 793 992 b 683 951 729 992 700 976 l 294 951 b 111 768 193 951 111 869 z m 344 163 l 344 200 l 667 200 l 667 163 z "},"み":{"ha":1214,"x_min":0,"x_max":0,"o":"m 111 94 b 206 0 111 42 153 0 l 485 0 b 579 94 536 0 579 42 l 579 401 l 788 401 l 788 189 l 742 189 b 649 94 690 189 649 146 b 742 0 649 42 690 0 l 881 0 b 975 94 933 0 975 42 l 975 401 l 1008 401 b 1103 496 1061 401 1103 444 b 1008 590 1103 549 1061 590 l 975 590 l 975 744 b 881 839 975 796 933 839 b 788 744 829 839 788 796 l 788 590 l 579 590 l 579 651 b 668 808 632 683 668 742 b 485 992 668 910 586 992 l 294 992 b 111 808 193 992 111 910 b 294 625 111 707 193 625 l 390 625 l 390 590 l 206 590 b 111 496 153 590 111 549 z m 300 189 l 300 401 l 390 401 l 390 189 z "},"む":{"ha":1214,"x_min":0,"x_max":0,"o":"m 111 164 b 204 69 111 111 153 69 l 388 69 b 478 0 399 29 435 0 l 910 0 b 1103 193 1015 0 1103 86 l 1103 376 b 1008 471 1103 429 1061 471 b 914 376 957 471 914 429 l 914 193 b 910 189 914 190 913 189 l 572 189 l 572 565 l 663 565 b 846 749 764 565 846 647 b 663 932 846 850 764 932 l 565 932 b 478 992 551 968 518 992 b 390 932 439 992 404 968 l 294 932 b 111 749 193 932 111 850 b 294 565 111 647 193 565 l 383 565 l 383 511 l 204 511 b 111 417 153 511 111 468 z m 914 643 b 1008 549 914 590 957 549 b 1103 643 1061 549 1103 590 l 1103 839 b 1008 933 1103 890 1061 933 b 914 839 957 933 914 890 z m 299 258 l 299 322 l 383 322 l 383 258 z "},"め":{"ha":1215,"x_min":0,"x_max":0,"o":"m 111 174 b 285 0 111 78 190 0 l 585 0 b 758 174 681 0 758 78 l 758 567 l 915 567 l 915 189 l 882 189 b 788 94 829 189 788 146 b 882 0 788 42 829 0 l 931 0 b 1104 174 1026 0 1104 78 l 1104 744 l 1104 747 l 1104 750 b 921 933 1104 851 1022 933 l 751 933 b 664 992 738 968 703 992 b 576 933 624 992 590 968 l 522 933 b 435 992 508 968 475 992 b 347 933 396 992 361 968 l 296 933 b 113 765 200 933 121 860 b 111 754 113 763 111 758 z m 300 189 l 300 567 l 340 567 l 340 324 b 435 229 340 272 383 229 b 529 324 488 229 529 272 l 529 567 l 569 567 l 569 189 z "},"も":{"ha":1214,"x_min":0,"x_max":0,"o":"m 111 436 b 206 342 111 385 153 342 l 261 342 l 261 193 b 454 0 261 86 347 0 l 910 0 b 1103 193 1017 0 1103 86 l 1103 236 b 1008 329 1103 288 1061 329 b 914 236 957 329 914 288 l 914 193 b 910 189 914 190 913 189 l 454 189 b 450 193 451 189 450 190 l 450 342 l 939 342 b 1033 436 992 342 1033 385 b 939 531 1033 489 992 531 l 450 531 l 450 565 l 850 565 b 1033 749 951 565 1033 647 b 850 932 1033 850 951 932 l 443 932 b 356 992 429 968 394 992 b 267 931 315 992 281 967 b 111 749 179 917 111 840 b 261 568 111 660 175 585 l 261 531 l 206 531 b 111 436 153 531 111 489 z "},"や":{"ha":1214,"x_min":0,"x_max":0,"o":"m 111 654 b 257 475 111 567 174 492 l 257 94 b 351 0 257 42 299 0 b 446 94 403 0 446 42 l 446 471 l 582 471 l 582 443 b 676 349 582 390 624 349 b 771 443 728 349 771 390 l 771 471 l 914 471 l 914 351 b 881 318 914 333 899 318 l 760 318 b 667 224 708 318 667 275 b 760 129 667 171 708 129 l 881 129 b 1103 351 1003 129 1103 229 l 1103 664 b 919 839 1097 761 1017 839 l 771 839 l 771 897 b 676 992 771 950 728 992 b 582 897 624 992 582 950 l 582 839 l 446 839 l 446 897 b 351 992 446 950 403 992 b 257 897 299 992 257 950 l 257 835 b 111 654 174 818 111 743 z "},"ゃ":{"ha":967,"x_min":0,"x_max":0,"o":"m 111 492 b 221 357 111 425 158 369 l 221 71 b 292 0 221 32 253 0 b 363 71 331 0 363 32 l 363 353 l 465 353 l 465 332 b 535 261 465 293 496 261 b 606 332 575 261 606 293 l 606 353 l 714 353 l 714 264 b 689 238 714 250 703 238 l 599 238 b 528 168 560 238 528 207 b 599 97 528 128 560 97 l 689 97 b 856 264 781 97 856 172 l 856 499 b 718 629 851 571 792 629 l 606 629 l 606 674 b 535 744 606 713 575 744 b 465 674 496 744 465 713 l 465 629 l 363 629 l 363 674 b 292 744 363 713 331 744 b 221 674 253 744 221 713 l 221 626 b 111 492 158 613 111 557 z "},"ゆ":{"ha":1211,"x_min":0,"x_max":0,"o":"m 111 186 b 199 89 111 136 149 93 b 299 183 253 86 299 129 l 299 465 b 397 564 299 519 343 564 l 586 564 l 586 276 l 483 276 b 389 183 431 276 389 235 b 483 89 389 131 431 89 l 586 89 b 681 0 589 39 631 0 b 774 89 731 0 771 39 l 875 89 b 1100 313 999 89 1100 189 l 1100 742 b 1099 746 1100 743 1099 744 b 1099 753 1099 749 1100 751 b 913 929 1096 853 1011 929 l 768 929 b 681 989 754 964 719 989 b 593 929 640 989 607 964 l 511 929 b 406 897 472 929 436 917 l 299 806 l 299 892 b 211 989 299 942 261 985 b 111 894 156 992 111 949 z m 775 276 l 775 564 l 911 564 l 911 313 b 875 276 911 293 896 276 z "},"ゅ":{"ha":965,"x_min":0,"x_max":0,"o":"m 111 140 b 176 67 111 103 139 69 b 253 138 218 64 253 97 l 253 350 b 326 424 253 390 286 424 l 469 424 l 469 208 l 390 208 b 319 138 351 208 319 176 b 390 67 319 99 351 67 l 469 67 b 539 0 471 29 501 0 b 610 67 578 0 608 29 l 686 67 b 854 235 779 67 854 143 l 854 558 l 854 561 l 854 567 b 714 700 851 642 789 700 l 606 700 b 539 744 594 725 569 744 b 474 700 510 744 485 725 l 411 700 b 333 675 382 700 356 690 b 253 607 331 674 253 607 l 253 671 b 186 744 253 708 224 742 b 111 674 144 747 111 714 z m 610 208 l 610 424 l 714 424 l 714 235 b 686 208 714 221 701 208 z "},"よ":{"ha":1218,"x_min":0,"x_max":0,"o":"m 111 94 b 206 0 111 42 153 0 l 747 0 b 842 94 799 0 842 42 l 842 283 l 1013 283 b 1107 378 1065 283 1107 325 b 1013 472 1107 431 1065 472 l 842 472 l 842 529 l 924 529 b 1107 714 1025 529 1107 613 b 924 897 1107 815 1025 897 l 842 897 b 747 992 842 950 799 992 b 653 897 694 992 653 950 l 653 472 l 206 472 b 111 378 153 472 111 431 z m 300 189 l 300 283 l 653 283 l 653 189 z "},"ょ":{"ha":968,"x_min":0,"x_max":0,"o":"m 111 71 b 182 0 111 32 143 0 l 588 0 b 658 71 626 0 658 32 l 658 213 l 786 213 b 857 282 825 213 857 243 b 786 353 857 322 825 353 l 658 353 l 658 396 l 719 396 b 857 533 794 396 857 458 b 719 671 857 610 794 671 l 658 671 b 588 742 658 711 626 742 b 517 671 549 742 517 711 l 517 353 l 182 353 b 111 282 143 353 111 322 z m 253 142 l 253 213 l 517 213 l 517 142 z "},"ら":{"ha":1214,"x_min":0,"x_max":0,"o":"m 356 808 b 539 625 356 707 438 625 l 919 625 b 1103 808 1021 625 1103 707 b 919 992 1103 910 1021 992 l 539 992 b 356 808 438 992 356 910 z m 111 94 b 204 0 111 42 153 0 l 910 0 b 1103 193 1015 0 1103 86 l 1103 307 b 910 501 1103 414 1015 501 l 299 501 l 299 744 b 204 839 299 796 257 839 b 111 744 153 839 111 796 l 111 407 b 204 313 111 354 153 313 l 910 313 b 914 307 913 313 914 310 l 914 193 b 910 189 914 190 913 189 l 204 189 b 111 94 153 189 111 146 z "},"り":{"ha":1001,"x_min":0,"x_max":0,"o":"m 200 94 b 294 0 200 42 242 0 l 608 0 b 890 282 764 0 890 126 l 890 897 b 796 992 890 950 849 992 b 701 897 744 992 701 950 l 701 282 b 608 189 701 231 660 189 l 294 189 b 200 94 242 189 200 146 z m 111 463 b 294 279 111 361 193 279 b 458 381 367 279 428 321 l 554 415 b 611 536 604 433 629 488 b 490 593 593 586 539 611 l 478 589 l 478 758 b 294 943 478 860 396 943 b 111 758 193 943 111 860 z "},"る":{"ha":1214,"x_min":0,"x_max":0,"o":"m 111 94 b 204 0 111 42 153 0 l 910 0 b 1103 193 1015 0 1103 86 l 1103 486 b 910 679 1103 593 1015 679 l 664 679 b 717 808 697 713 717 758 b 533 992 717 910 635 992 l 294 992 b 111 808 193 992 111 910 b 294 625 111 707 193 625 l 463 625 l 463 585 b 557 490 463 533 504 490 l 910 490 b 914 486 913 490 914 489 l 914 193 b 910 189 914 190 913 189 l 651 189 l 651 367 b 557 461 651 419 608 461 l 204 461 b 111 367 153 461 111 419 z m 299 189 l 299 272 l 463 272 l 463 189 z "},"れ":{"ha":1214,"x_min":0,"x_max":0,"o":"m 111 233 b 200 139 111 183 150 142 l 200 94 b 294 0 200 42 243 0 b 389 94 347 0 389 42 l 389 413 l 469 522 b 557 567 490 550 522 567 l 815 567 l 815 94 b 910 0 815 42 857 0 l 1008 0 b 1103 94 1061 0 1103 42 b 1008 189 1103 146 1061 189 l 1004 189 l 1004 750 l 1004 753 l 1004 756 b 815 933 1000 856 915 933 l 632 933 b 497 874 579 933 531 910 b 483 858 492 869 488 865 l 389 731 l 389 897 b 294 992 389 950 347 992 b 200 897 243 992 200 950 l 200 831 b 111 738 150 829 111 788 b 200 643 111 688 150 646 l 200 326 b 111 233 150 325 111 283 z "},"ろ":{"ha":1214,"x_min":0,"x_max":0,"o":"m 111 94 b 204 0 111 42 153 0 l 910 0 b 1103 193 1015 0 1103 86 l 1103 436 b 910 629 1103 543 1015 629 l 651 629 l 651 668 b 717 808 692 701 717 751 b 533 992 717 910 635 992 l 294 992 b 111 808 193 992 111 910 b 294 625 111 707 193 625 l 463 625 l 463 536 b 557 442 463 483 504 442 l 910 442 b 914 436 913 442 914 439 l 914 193 b 910 189 914 190 913 189 l 299 189 l 299 231 b 204 325 299 282 257 325 b 111 231 153 325 111 282 z "},"わ":{"ha":1214,"x_min":0,"x_max":0,"o":"m 111 233 b 206 139 111 181 153 139 l 229 139 l 229 94 b 324 0 229 42 272 0 b 418 94 376 0 418 42 l 418 453 l 469 522 b 556 567 490 550 522 567 l 914 567 l 914 201 b 901 189 914 194 908 189 l 735 189 b 640 94 682 189 640 146 b 735 0 640 42 682 0 l 901 0 b 1103 201 1013 0 1103 90 l 1103 750 l 1103 753 l 1103 756 b 915 933 1099 856 1014 933 l 632 933 b 497 874 578 933 531 910 b 483 858 492 869 488 865 l 418 771 l 418 897 b 324 992 418 950 376 992 b 229 897 272 992 229 950 l 229 832 l 206 832 b 111 738 153 832 111 789 b 206 643 111 685 153 643 l 229 643 l 229 328 l 206 328 b 111 233 153 328 111 285 z "},"ゎ":{"ha":967,"x_min":0,"x_max":0,"o":"m 111 175 b 182 104 111 136 143 104 l 200 104 l 200 71 b 271 0 200 32 232 0 b 342 71 310 0 342 32 l 342 339 l 381 392 b 444 425 396 413 419 425 l 714 425 l 714 151 b 704 142 714 146 710 142 l 579 142 b 508 71 540 142 508 110 b 579 0 508 32 540 0 l 704 0 b 856 151 788 0 856 68 l 856 563 b 854 565 856 563 856 564 l 856 567 b 714 700 853 642 789 700 l 501 700 b 400 656 461 700 426 683 b 390 644 397 653 393 649 l 342 578 l 342 674 b 271 744 342 713 310 744 b 200 674 232 744 200 713 l 200 624 l 182 624 b 111 553 143 624 111 592 b 182 482 111 514 143 482 l 200 482 l 200 246 l 182 246 b 111 175 143 246 111 214 z "},"ゐ":{"ha":1214,"x_min":0,"x_max":0,"o":"m 111 94 b 204 0 111 42 153 0 l 483 0 b 578 94 536 0 578 42 l 578 401 l 864 401 l 864 372 l 725 372 b 631 278 672 372 631 329 l 631 94 b 725 0 631 42 672 0 l 958 0 b 1053 94 1011 0 1053 42 l 1053 194 b 1103 278 1082 211 1103 242 b 1053 361 1103 314 1082 344 l 1053 426 b 889 590 1053 517 979 590 l 578 590 l 578 651 b 668 808 632 683 668 742 b 483 992 668 910 585 992 l 294 992 b 111 808 193 992 111 910 b 294 625 111 707 193 625 l 390 625 l 390 590 l 204 590 b 111 496 153 590 111 549 z m 299 189 l 299 401 l 390 401 l 390 189 z m 788 154 l 788 218 l 896 218 l 896 154 z "},"ゑ":{"ha":1214,"x_min":0,"x_max":0,"o":"m 111 94 b 204 0 111 42 153 0 b 299 94 257 0 299 42 l 299 121 b 286 168 299 139 294 154 l 525 168 b 513 121 517 154 513 139 l 513 94 b 607 0 513 42 554 0 b 701 94 658 0 701 42 l 701 121 b 688 168 701 139 696 154 l 910 168 b 928 169 915 168 921 169 b 914 121 919 156 914 139 l 914 94 b 1008 0 914 42 957 0 b 1103 94 1061 0 1103 42 l 1103 121 b 1032 213 1103 165 1072 201 b 1103 363 1075 249 1103 301 l 1103 522 b 910 715 1103 629 1015 715 l 692 715 b 717 808 707 743 717 775 b 533 992 717 910 635 992 l 294 992 b 111 808 193 992 111 910 b 294 625 111 707 193 625 l 463 625 l 463 621 b 475 575 463 604 467 589 l 204 575 b 111 481 153 575 111 533 l 111 263 b 143 192 111 235 124 210 b 111 121 124 175 111 150 z m 556 528 l 910 528 b 914 522 913 528 914 525 l 914 363 b 910 357 914 360 913 357 l 568 357 l 568 481 b 556 528 568 499 564 514 z m 299 357 l 299 388 l 379 388 l 379 357 z "},"を":{"ha":1214,"x_min":0,"x_max":0,"o":"m 111 193 b 304 0 111 86 199 0 l 1010 0 b 1103 94 1061 0 1103 42 b 1010 189 1103 146 1061 189 l 304 189 b 300 193 301 189 300 190 l 300 310 b 304 314 300 313 301 314 l 385 314 b 479 228 389 267 429 228 b 572 314 529 228 569 267 l 871 314 b 878 315 874 314 876 315 b 947 354 906 317 931 331 l 1036 481 b 1014 613 1067 524 1057 582 b 882 590 971 643 913 632 l 821 503 l 574 503 l 574 565 l 679 565 b 864 749 781 565 864 647 b 679 932 864 850 781 932 l 567 932 b 479 992 553 968 519 992 b 392 932 439 992 406 968 l 294 932 b 111 749 193 932 111 850 b 294 565 111 647 193 565 l 385 565 l 385 503 l 304 503 b 111 310 199 503 111 417 z "},"ん":{"ha":1211,"x_min":0,"x_max":0,"o":"m 111 100 b 199 0 107 49 147 3 l 204 0 b 299 88 254 0 294 39 l 313 318 l 511 318 l 511 193 b 704 0 511 86 597 0 l 907 0 b 1100 193 1013 0 1100 86 l 1100 383 b 1006 476 1100 435 1057 476 b 911 383 954 476 911 435 l 911 193 b 907 188 911 190 910 188 l 704 188 b 699 193 701 188 699 190 l 699 500 b 515 683 699 601 617 683 l 335 683 l 347 889 b 260 989 351 942 311 986 b 160 901 208 992 164 953 z "},"ゔ":{"ha":1308,"x_min":0,"x_max":0,"o":"m 164 808 b 347 625 164 707 246 625 l 868 625 b 1047 772 957 625 1031 688 b 999 807 1029 781 1013 792 b 894 760 974 778 936 760 b 757 897 818 760 757 822 b 794 992 757 935 771 968 l 347 992 b 164 808 246 992 164 910 z m 800 897 b 894 992 800 950 843 992 b 989 897 947 992 989 950 b 894 804 989 846 947 804 b 800 897 843 804 800 846 z m 1008 897 b 1103 992 1008 950 1051 992 b 1197 897 1156 992 1197 950 b 1103 804 1197 846 1156 804 b 1008 897 1051 804 1008 846 z m 111 496 b 206 590 111 549 153 590 l 889 590 b 1103 376 1007 590 1103 494 l 1103 214 b 889 0 1103 96 1007 0 l 304 0 b 210 94 253 0 210 42 b 304 189 210 146 253 189 l 889 189 b 915 214 903 189 915 200 l 915 376 b 889 401 915 390 903 401 l 206 401 b 111 496 153 401 111 444 z "},"ア":{"ha":1210,"x_min":0,"x_max":0,"o":"m 111 744 b 294 561 111 643 193 561 l 829 561 b 686 469 788 517 736 485 b 600 524 671 501 638 524 b 506 431 549 524 506 482 b 333 186 506 285 456 214 b 261 74 282 175 250 125 b 353 0 271 31 310 0 b 374 3 360 0 367 1 b 676 281 561 44 644 160 b 690 279 681 279 685 279 b 710 282 696 279 703 281 b 1099 744 924 328 1099 535 b 915 928 1099 846 1015 928 l 294 928 b 111 744 193 928 111 846 z "},"ァ":{"ha":963,"x_min":0,"x_max":0,"o":"m 111 557 b 249 419 111 481 172 419 l 649 419 b 553 356 621 390 586 367 b 489 393 540 378 517 393 b 419 322 450 393 419 361 b 289 140 419 213 381 160 b 235 56 251 131 226 93 b 304 0 243 22 272 0 b 319 1 310 0 314 0 b 546 208 460 33 521 118 b 558 210 550 208 554 208 b 849 532 711 243 836 383 b 851 557 850 539 851 549 b 714 694 851 633 790 694 l 249 694 b 111 557 172 694 111 633 z "},"イ":{"ha":1190,"x_min":0,"x_max":0,"o":"m 113 426 b 290 271 126 336 203 271 b 315 274 299 271 307 272 b 567 338 401 285 486 307 l 567 92 b 660 0 567 42 608 0 b 751 92 710 0 751 42 l 751 425 b 1046 683 869 494 972 582 b 1006 933 1103 764 1086 875 b 754 894 925 992 813 974 b 265 629 658 761 467 657 b 113 426 168 615 99 524 z "},"ィ":{"ha":965,"x_min":0,"x_max":0,"o":"m 113 326 b 249 208 122 258 181 208 b 268 210 254 208 261 208 b 460 258 333 219 399 236 l 460 71 b 531 0 460 32 492 0 b 601 71 569 0 601 32 l 601 326 b 828 524 693 379 771 447 b 797 717 872 586 858 672 b 604 686 735 761 649 747 b 229 482 531 583 383 504 b 113 326 154 472 101 401 z "},"ウ":{"ha":1181,"x_min":0,"x_max":0,"o":"m 111 460 b 206 365 111 408 154 365 b 300 460 258 365 300 408 l 300 508 l 864 508 b 518 186 824 329 715 231 b 447 74 468 175 436 125 b 539 0 457 31 496 0 b 560 3 546 0 553 1 b 1069 686 897 78 1069 307 b 1068 689 1069 688 1068 688 b 1069 692 1068 690 1069 692 b 885 875 1069 793 986 875 l 685 875 l 685 897 b 590 992 685 950 642 992 b 496 897 538 992 496 950 l 496 875 l 294 875 b 114 721 203 875 128 808 b 111 700 113 714 111 707 z "},"ゥ":{"ha":939,"x_min":0,"x_max":0,"o":"m 111 344 b 181 275 111 306 142 275 b 251 344 221 275 251 306 l 251 382 l 674 382 b 415 140 644 247 563 172 b 363 56 378 131 354 93 b 431 0 369 22 399 0 b 446 1 436 0 442 0 b 828 515 700 58 828 231 l 828 517 l 828 519 b 690 657 828 594 767 657 l 540 657 l 540 674 b 469 744 540 713 508 744 b 399 674 431 744 399 713 l 399 657 l 249 657 b 113 540 179 657 122 606 b 111 525 111 535 111 531 z "},"エ":{"ha":1215,"x_min":0,"x_max":0,"o":"m 111 124 b 206 29 111 72 154 29 l 1010 29 b 1104 124 1061 29 1104 72 b 1010 218 1104 176 1061 218 l 701 218 l 701 514 l 893 514 b 1076 697 994 514 1076 596 b 893 881 1076 799 994 881 l 322 881 b 139 697 221 881 139 799 b 322 514 139 596 221 514 l 514 514 l 514 218 l 206 218 b 111 124 154 218 111 176 z "},"ェ":{"ha":965,"x_min":0,"x_max":0,"o":"m 111 93 b 181 22 111 54 142 22 l 783 22 b 854 93 822 22 854 54 b 783 164 854 132 822 164 l 553 164 l 553 385 l 696 385 b 833 522 772 385 833 447 b 696 660 833 599 772 660 l 268 660 b 131 522 193 660 131 599 b 268 385 131 447 193 385 l 411 385 l 411 164 l 181 164 b 111 93 142 164 111 132 z "},"オ":{"ha":1199,"x_min":0,"x_max":0,"o":"m 114 124 b 207 49 124 79 163 49 b 226 51 213 49 219 50 b 615 514 440 97 615 304 l 701 514 l 701 94 b 796 0 701 42 743 0 b 890 94 847 0 890 42 l 890 514 l 903 514 b 1088 697 1004 514 1088 596 b 903 881 1088 799 1004 881 l 890 881 l 890 897 b 796 992 890 950 847 992 b 701 897 743 992 701 950 l 701 881 l 313 881 b 129 697 211 881 129 799 b 313 514 129 596 211 514 l 426 514 b 186 235 426 381 300 260 b 114 124 136 224 103 174 z "},"ォ":{"ha":954,"x_min":0,"x_max":0,"o":"m 113 92 b 182 36 121 60 150 36 b 197 38 188 36 192 38 b 489 385 358 74 489 229 l 553 385 l 553 71 b 624 0 553 32 585 0 b 694 71 663 0 694 32 l 694 385 l 704 385 b 843 522 781 385 843 447 b 704 660 843 599 781 660 l 694 660 l 694 674 b 624 744 694 713 663 744 b 553 674 585 744 553 713 l 553 660 l 263 660 b 125 522 186 660 125 599 b 263 385 125 447 186 385 l 347 385 b 167 176 347 285 253 194 b 113 92 129 168 104 131 z "},"カ":{"ha":1179,"x_min":0,"x_max":0,"o":"m 121 53 b 206 0 138 19 171 0 b 247 10 219 0 233 3 b 538 514 415 94 518 275 l 872 514 b 801 217 864 406 843 296 b 756 189 792 199 774 189 l 707 189 b 610 100 657 189 613 150 b 703 0 606 46 650 0 l 829 0 b 899 31 856 0 882 11 b 1068 697 1047 193 1068 481 b 885 881 1068 799 986 881 l 540 881 l 540 897 b 446 992 540 950 499 992 b 351 897 394 992 351 950 l 351 881 l 344 881 b 161 697 243 881 161 799 b 344 514 161 596 243 514 l 347 514 b 163 179 336 401 296 244 b 121 53 117 156 97 99 z "},"ヵ":{"ha":940,"x_min":0,"x_max":0,"o":"m 118 39 b 182 0 131 14 156 0 b 213 7 192 0 203 3 b 431 385 339 71 417 207 l 682 385 b 628 163 675 304 661 222 b 594 142 622 150 608 142 l 558 142 b 485 75 521 142 488 113 b 556 0 482 35 515 0 l 650 0 b 703 22 669 0 689 8 b 829 522 814 144 829 361 b 692 660 829 599 767 660 l 433 660 l 433 674 b 363 744 433 713 401 744 b 292 674 324 744 292 713 l 292 660 l 286 660 b 149 522 211 660 149 599 b 286 385 149 447 211 385 l 289 385 b 150 133 281 301 250 183 b 118 39 115 117 101 74 z "},"ガ":{"ha":1308,"x_min":0,"x_max":0,"o":"m 121 53 b 206 0 138 19 171 0 b 247 10 219 0 233 3 b 538 514 415 94 518 275 l 872 514 b 801 217 864 406 844 296 b 756 189 792 200 775 189 l 707 189 b 610 100 657 189 613 150 b 704 0 606 46 650 0 l 831 0 b 900 31 856 0 882 11 b 1068 697 1049 193 1068 481 b 1053 769 1068 722 1063 747 b 999 807 1032 778 1014 790 b 894 760 974 778 936 760 b 758 881 824 760 767 813 l 540 881 l 540 897 b 446 992 540 950 499 992 b 353 897 394 992 353 950 l 353 881 l 350 881 b 161 704 250 881 165 803 b 344 514 158 599 242 514 l 349 514 b 163 179 336 401 296 244 b 121 53 117 156 97 99 z m 800 897 b 894 992 800 950 843 992 b 989 897 947 992 989 950 b 894 804 989 846 947 804 b 800 897 843 804 800 846 z m 1008 897 b 1103 992 1008 950 1051 992 b 1197 897 1156 992 1197 950 b 1103 804 1197 846 1156 804 b 1008 897 1051 804 1008 846 z "},"キ":{"ha":1119,"x_min":0,"x_max":0,"o":"m 111 308 b 204 215 111 257 153 215 l 501 215 l 519 86 b 624 6 526 35 572 0 b 704 111 675 13 711 60 l 690 215 l 914 215 b 1008 308 967 215 1008 257 b 914 401 1008 360 967 401 l 665 401 l 650 513 l 826 513 b 1008 693 926 513 1008 593 b 826 875 1008 793 926 875 l 603 875 l 599 904 b 494 985 592 956 544 992 b 414 881 443 978 407 931 l 415 875 l 293 875 b 111 693 193 875 111 793 b 293 513 111 593 193 513 l 463 513 l 478 401 l 204 401 b 111 308 153 401 111 360 z "},"ギ":{"ha":1254,"x_min":0,"x_max":0,"o":"m 111 308 b 206 215 111 257 154 215 l 503 215 l 519 86 b 624 6 526 35 572 0 b 704 111 675 13 711 60 l 690 215 l 915 215 b 1008 308 967 215 1008 257 b 915 401 1008 360 967 401 l 665 401 l 651 513 l 826 513 b 1008 693 926 513 1008 593 b 992 768 1008 721 1001 746 b 946 803 974 776 958 789 b 843 756 921 774 885 756 b 708 875 774 756 717 808 l 603 875 l 599 904 b 494 985 592 956 546 992 b 414 881 443 978 407 931 l 415 875 l 293 875 b 111 693 193 875 111 793 b 293 513 111 593 193 513 l 463 513 l 478 401 l 206 401 b 111 308 154 401 111 360 z m 750 892 b 843 799 750 840 792 799 b 936 892 894 799 936 840 b 843 985 936 943 894 985 b 750 892 792 985 750 943 z m 956 892 b 1050 799 956 840 999 799 b 1143 892 1101 799 1143 840 b 1050 985 1143 943 1101 985 b 956 892 999 985 956 943 z "},"ク":{"ha":1168,"x_min":0,"x_max":0,"o":"m 126 458 b 206 415 144 431 175 415 b 256 429 222 415 240 419 b 378 561 307 463 347 508 l 851 561 b 506 186 813 365 703 231 b 435 74 456 175 424 125 b 526 0 444 31 483 0 b 547 3 533 0 540 1 b 1057 744 885 78 1057 365 b 872 928 1057 846 974 928 l 458 928 b 369 992 446 965 411 992 b 275 897 317 992 275 950 b 156 589 275 782 233 639 b 126 458 111 561 99 503 z "},"グ":{"ha":1278,"x_min":0,"x_max":0,"o":"m 125 458 b 206 415 143 431 174 415 b 256 429 222 415 240 419 b 378 561 307 463 347 508 l 850 561 b 506 186 811 365 703 231 b 433 74 454 175 422 125 b 526 0 443 31 482 0 b 546 3 532 0 539 1 b 1056 744 885 78 1056 365 b 1054 761 1056 750 1056 756 b 969 807 1021 765 990 783 b 865 760 943 778 907 760 b 726 897 789 760 726 822 b 731 928 726 908 728 918 l 458 928 b 369 992 446 965 410 992 b 275 897 317 992 275 950 b 154 589 275 782 233 639 b 125 458 111 561 97 503 z m 771 897 b 865 992 771 950 813 992 b 958 897 917 992 958 950 b 865 804 958 846 917 804 b 771 897 813 804 771 846 z m 979 897 b 1074 992 979 950 1021 992 b 1167 897 1125 992 1167 950 b 1074 804 1167 846 1125 804 b 979 897 1021 804 979 846 z "},"ケ":{"ha":1215,"x_min":0,"x_max":0,"o":"m 126 458 b 206 415 144 431 175 415 b 257 429 224 415 240 419 b 347 514 292 451 322 481 l 739 514 b 393 186 700 331 590 231 b 321 74 342 175 310 125 b 413 0 331 31 369 0 b 433 3 419 0 426 1 b 929 514 717 65 883 238 b 1104 697 1026 518 1104 599 b 921 881 1104 799 1022 881 l 464 881 l 464 897 b 369 992 464 950 422 992 b 275 897 318 992 275 950 b 156 589 275 782 235 639 b 126 458 111 561 99 503 z "},"ヶ":{"ha":967,"x_min":0,"x_max":0,"o":"m 122 344 b 182 311 136 322 160 311 b 221 322 196 311 208 315 b 288 385 247 339 269 361 l 582 385 b 322 140 553 249 471 172 b 268 56 285 131 260 93 b 338 0 276 22 306 0 b 353 1 343 0 347 0 b 725 385 565 49 690 178 b 856 522 797 389 856 449 b 718 660 856 599 794 660 l 376 660 l 376 674 b 306 744 376 713 344 744 b 235 674 267 744 235 713 b 144 442 235 586 204 479 b 122 344 111 421 101 376 z "},"ゲ":{"ha":1308,"x_min":0,"x_max":0,"o":"m 125 458 b 206 415 143 431 174 415 b 256 429 222 415 240 419 b 346 514 290 451 321 481 l 738 514 b 392 186 699 331 589 231 b 319 74 340 175 308 125 b 411 0 329 31 368 0 b 432 3 418 0 425 1 b 928 514 715 65 882 238 b 1103 697 1025 518 1103 599 b 1092 761 1103 719 1099 740 b 999 807 1054 764 1021 781 b 894 760 974 778 936 760 b 757 881 824 760 767 813 l 463 881 l 463 897 b 368 992 463 950 421 992 b 275 897 317 992 275 950 b 154 589 275 782 233 639 b 125 458 111 561 97 503 z m 800 897 b 894 992 800 950 842 992 b 989 897 946 992 989 950 b 894 804 989 846 946 804 b 800 897 842 804 800 846 z m 1008 897 b 1103 992 1008 950 1050 992 b 1197 897 1154 992 1197 950 b 1103 804 1197 846 1154 804 b 1008 897 1050 804 1008 846 z "},"コ":{"ha":1160,"x_min":0,"x_max":0,"o":"m 111 124 b 206 29 111 72 154 29 l 886 29 b 954 0 903 11 928 0 b 1049 94 1007 0 1049 42 l 1049 665 b 1047 679 1049 671 1049 675 b 1049 697 1049 685 1049 690 b 865 881 1049 799 967 881 l 294 881 b 111 697 193 881 111 799 b 294 514 111 596 193 514 l 860 514 l 860 218 l 206 218 b 111 124 154 218 111 176 z "},"ゴ":{"ha":1282,"x_min":0,"x_max":0,"o":"m 774 897 b 868 992 774 950 815 992 b 963 897 919 992 963 950 b 868 804 963 846 919 804 b 774 897 815 804 774 846 z m 982 897 b 1076 992 982 950 1024 992 b 1171 897 1128 992 1171 950 b 1076 804 1171 846 1128 804 b 982 897 1024 804 982 846 z m 111 124 b 206 29 111 72 154 29 l 886 29 b 954 0 903 11 928 0 b 1049 94 1007 0 1049 42 l 1049 665 b 1047 679 1049 671 1049 675 b 1049 697 1049 685 1049 690 b 1035 767 1049 721 1044 744 b 972 807 1011 774 989 789 b 868 760 947 778 910 760 b 731 881 797 760 739 813 l 294 881 b 111 697 193 881 111 799 b 294 514 111 596 193 514 l 860 514 l 860 218 l 206 218 b 111 124 154 218 111 176 z "},"サ":{"ha":1215,"x_min":0,"x_max":0,"o":"m 111 654 b 268 474 111 563 179 486 l 268 403 b 363 308 268 350 310 308 b 457 403 414 308 457 350 l 457 471 l 756 471 b 506 189 740 303 649 199 b 418 88 453 185 414 139 b 513 0 422 38 463 0 l 519 0 b 946 474 763 18 926 201 b 1104 654 1035 486 1104 563 b 947 836 1104 747 1036 822 l 947 897 b 853 992 947 950 906 992 b 758 897 801 992 758 950 l 758 839 l 457 839 l 457 897 b 363 992 457 950 414 992 b 268 897 310 992 268 950 l 268 836 b 111 654 179 822 111 747 z "},"ザ":{"ha":1308,"x_min":0,"x_max":0,"o":"m 111 654 b 267 474 111 563 178 486 l 267 403 b 361 308 267 350 308 308 b 456 403 413 308 456 350 l 456 471 l 756 471 b 504 189 739 303 647 199 b 417 88 453 185 414 139 b 511 0 421 38 463 0 l 518 0 b 944 474 763 18 925 201 b 1103 654 1033 486 1103 563 b 1065 765 1103 696 1089 735 b 999 807 1039 772 1015 788 b 894 760 974 778 936 760 b 769 839 839 760 792 792 l 456 839 l 456 897 b 361 992 456 950 413 992 b 267 897 308 992 267 950 l 267 836 b 111 654 178 822 111 747 z m 800 897 b 894 804 800 846 842 804 b 989 897 946 804 989 846 b 894 992 989 950 946 992 b 800 897 842 992 800 950 z m 1008 897 b 1103 804 1008 846 1050 804 b 1197 897 1154 804 1197 846 b 1103 992 1197 950 1154 992 b 1008 897 1050 992 1008 950 z "},"シ":{"ha":1181,"x_min":0,"x_max":0,"o":"m 111 744 b 294 561 111 643 193 561 l 488 561 b 671 744 589 561 671 643 b 488 928 671 846 589 928 l 294 928 b 111 744 193 928 111 846 z m 449 74 b 540 0 458 31 497 0 b 561 3 547 0 554 1 b 1069 744 899 78 1069 365 b 976 839 1069 796 1028 839 b 882 744 924 839 882 796 b 519 186 882 450 774 243 b 449 74 469 175 436 125 z m 160 401 b 254 307 160 350 203 307 l 528 307 b 621 401 579 307 621 350 b 528 496 621 454 579 496 l 254 496 b 160 401 203 496 160 454 z "},"ジ":{"ha":1286,"x_min":0,"x_max":0,"o":"m 778 897 b 872 992 778 950 819 992 b 967 897 924 992 967 950 b 872 804 967 846 924 804 b 778 897 819 804 778 846 z m 986 897 b 1081 992 986 950 1028 992 b 1175 897 1132 992 1175 950 b 1081 804 1175 846 1132 804 b 986 897 1028 804 986 846 z m 111 744 b 294 928 111 846 193 928 l 488 928 b 671 744 589 928 671 846 b 488 561 671 643 589 561 l 294 561 b 111 744 193 561 111 643 z m 449 74 b 540 0 458 31 497 0 b 561 3 547 0 554 1 b 1071 744 899 78 1071 365 b 1068 761 1071 750 1069 756 b 976 807 1032 764 999 781 b 883 760 953 781 921 764 b 882 744 882 756 882 750 b 519 186 882 450 774 243 b 449 74 469 175 438 125 z m 160 401 b 254 496 160 454 203 496 l 528 496 b 622 401 579 496 622 454 b 528 307 622 350 579 307 l 254 307 b 160 401 203 307 160 350 z "},"ス":{"ha":1204,"x_min":0,"x_max":0,"o":"m 111 101 b 204 8 111 50 153 8 b 736 235 310 8 514 39 b 743 226 738 232 740 229 l 935 36 b 1067 36 971 -1 1029 -1 b 1067 168 1103 72 1103 131 l 875 358 b 865 368 872 363 868 365 b 1035 678 953 474 1014 585 b 1047 746 1043 699 1047 722 b 865 928 1047 846 967 928 l 322 928 b 140 746 221 928 140 846 b 322 564 140 644 221 564 l 778 564 b 657 417 747 517 707 467 b 204 194 515 276 350 194 b 111 101 153 194 111 153 z "},"ズ":{"ha":1299,"x_min":0,"x_max":0,"o":"m 794 897 b 888 804 794 846 836 804 b 981 897 939 804 981 846 b 888 992 981 950 939 992 b 794 897 836 992 794 950 z m 1001 897 b 1094 804 1001 846 1043 804 b 1188 897 1146 804 1188 846 b 1094 992 1188 950 1146 992 b 1001 897 1043 992 1001 950 z m 111 101 b 204 8 111 50 153 8 b 736 235 311 8 514 39 b 743 226 739 232 742 229 l 935 36 b 1067 36 971 -1 1031 -1 b 1067 168 1103 72 1103 131 l 876 358 b 865 368 872 363 869 365 b 1035 678 953 474 1014 585 b 1049 746 1043 699 1049 722 b 1046 769 1049 754 1047 761 b 992 808 1025 778 1006 792 b 888 761 965 779 929 761 b 751 897 813 761 751 822 b 754 928 751 908 753 918 l 322 928 b 140 746 222 928 140 846 b 322 564 140 644 222 564 l 779 564 b 658 417 749 517 708 467 b 204 194 515 276 350 194 b 111 101 153 194 111 153 z "},"セ":{"ha":1215,"x_min":0,"x_max":0,"o":"m 111 654 b 268 474 111 563 179 486 l 268 257 b 524 0 268 115 383 0 l 1010 0 b 1104 94 1061 0 1104 42 b 1010 189 1104 146 1061 189 l 524 189 b 457 257 486 189 457 219 l 457 471 l 729 471 l 704 446 b 704 313 667 408 667 349 b 838 313 740 275 800 275 l 1047 522 b 1053 528 1049 524 1050 526 l 1053 529 b 1060 536 1056 531 1058 533 b 1104 654 1088 568 1104 610 b 919 839 1104 756 1021 839 l 457 839 l 457 897 b 363 992 457 950 414 992 b 268 897 310 992 268 950 l 268 836 b 111 654 179 822 111 747 z "},"ゼ":{"ha":1308,"x_min":0,"x_max":0,"o":"m 111 654 b 267 474 111 563 178 486 l 267 257 b 524 0 267 115 382 0 l 1008 0 b 1103 94 1060 0 1103 42 b 1008 189 1103 146 1060 189 l 524 189 b 456 257 486 189 456 219 l 456 471 l 728 471 l 703 446 b 703 313 665 408 665 349 b 836 313 739 275 799 275 l 1053 529 b 1058 536 1054 531 1057 533 b 1103 654 1086 568 1103 610 b 1065 765 1103 696 1089 735 b 999 807 1039 772 1015 788 b 894 760 974 778 936 760 b 769 839 839 760 792 792 l 456 839 l 456 897 b 361 992 456 950 413 992 b 267 897 308 992 267 950 l 267 836 b 111 654 178 822 111 747 z m 800 897 b 894 992 800 950 842 992 b 989 897 946 992 989 950 b 894 804 989 846 946 804 b 800 897 842 804 800 846 z m 1008 897 b 1103 992 1008 950 1050 992 b 1197 897 1154 992 1197 950 b 1103 804 1197 846 1154 804 b 1008 897 1050 804 1008 846 z "},"ソ":{"ha":1126,"x_min":0,"x_max":0,"o":"m 129 682 l 214 508 b 460 424 258 417 368 379 b 543 669 550 468 588 578 l 458 843 b 213 928 414 935 304 972 b 129 682 122 883 85 774 z m 215 75 b 308 0 225 31 264 0 b 328 3 314 0 321 0 b 853 293 568 53 739 149 b 1015 839 963 429 1015 608 b 921 932 1015 890 972 932 b 826 839 868 932 826 890 b 289 186 826 463 665 267 b 215 75 238 175 206 125 z "},"ゾ":{"ha":1221,"x_min":0,"x_max":0,"o":"m 713 897 b 807 992 713 950 756 992 b 901 897 860 992 901 950 b 807 804 901 846 860 804 b 713 897 756 804 713 846 z m 921 897 b 1015 992 921 950 964 992 b 1110 897 1068 992 1110 950 b 1015 804 1110 846 1068 804 b 921 897 964 804 921 846 z m 129 682 b 214 928 85 774 122 883 b 460 843 306 972 415 935 l 544 669 b 460 424 589 578 551 468 b 214 508 369 379 258 417 z m 217 75 b 308 0 226 31 265 0 b 329 3 315 0 322 0 b 854 293 568 53 740 149 b 1014 760 950 414 1003 567 b 911 807 972 761 936 779 b 825 761 890 782 860 765 b 289 186 803 435 639 261 b 217 75 239 175 206 125 z "},"タ":{"ha":1167,"x_min":0,"x_max":0,"o":"m 125 458 b 206 415 143 431 174 415 b 256 429 222 415 240 419 b 378 561 307 463 347 508 l 850 561 b 801 413 840 507 824 457 l 558 518 b 435 469 510 539 456 517 b 483 346 414 422 436 367 l 676 261 b 506 186 629 226 572 201 b 433 74 454 175 422 125 b 526 0 443 31 482 0 b 546 3 532 0 539 1 b 1056 744 885 78 1056 365 b 872 928 1056 846 974 928 l 458 928 b 369 992 446 965 410 992 b 275 897 317 992 275 950 b 154 589 275 782 233 639 b 125 458 111 561 97 503 z "},"ダ":{"ha":1285,"x_min":0,"x_max":0,"o":"m 126 458 b 206 415 144 431 175 415 b 256 429 224 415 240 419 b 379 561 307 463 347 508 l 851 561 b 803 413 840 507 825 457 l 558 518 b 435 469 511 539 456 517 b 485 346 414 422 436 367 l 678 261 b 506 186 631 226 574 201 b 435 74 456 175 424 125 b 526 0 444 31 483 0 b 547 3 533 0 540 1 b 1057 744 885 78 1057 365 b 1056 763 1057 750 1056 756 b 976 807 1024 768 996 785 b 872 760 950 778 914 760 b 733 897 796 760 733 822 b 738 928 733 908 735 918 l 458 928 b 369 992 446 965 411 992 b 275 897 318 992 275 950 b 156 589 275 782 235 639 b 126 458 111 561 99 503 z m 778 897 b 872 992 778 950 819 992 b 965 897 924 992 965 950 b 872 804 965 846 924 804 b 778 897 819 804 778 846 z m 986 897 b 1081 992 986 950 1028 992 b 1174 897 1132 992 1174 950 b 1081 804 1174 846 1132 804 b 986 897 1028 804 986 846 z "},"チ":{"ha":1193,"x_min":0,"x_max":0,"o":"m 111 382 b 203 290 111 331 153 290 l 567 290 b 431 181 540 236 499 201 b 371 65 382 165 356 114 b 458 0 383 25 419 0 b 486 4 468 0 476 1 b 761 290 644 54 724 147 l 990 290 b 1082 382 1040 290 1082 331 b 990 475 1082 433 1040 475 l 789 475 b 793 571 792 506 792 538 b 915 628 831 586 871 604 b 992 869 1003 674 1038 782 b 749 946 946 958 838 992 b 369 868 607 872 540 868 b 190 689 271 868 190 788 b 369 510 190 589 271 510 b 607 521 458 510 532 510 b 606 475 607 506 606 489 l 203 475 b 111 382 153 475 111 433 z "},"ヂ":{"ha":1308,"x_min":0,"x_max":0,"o":"m 800 897 b 894 992 800 950 842 992 b 989 897 946 992 989 950 b 894 804 989 846 946 804 b 800 897 842 804 800 846 z m 1008 897 b 1103 992 1008 950 1050 992 b 1197 897 1154 992 1197 950 b 1103 804 1197 846 1154 804 b 1008 897 1050 804 1008 846 z m 111 390 b 204 296 111 338 153 296 l 576 296 b 438 185 549 242 506 206 b 375 67 388 168 360 115 b 465 0 389 26 425 0 b 493 4 475 0 485 1 b 775 296 656 56 736 150 l 1008 296 b 1103 390 1060 296 1103 338 b 1008 485 1103 442 1060 485 l 803 485 b 807 583 806 515 807 549 b 932 640 846 599 888 618 b 1029 781 988 669 1022 724 b 999 807 1018 789 1007 797 b 894 760 974 778 936 760 b 756 897 818 760 756 822 b 779 974 756 926 765 953 b 763 967 774 972 768 969 b 375 888 617 890 550 888 b 192 704 274 888 192 806 b 375 519 192 603 274 519 b 618 532 465 519 540 521 b 615 485 617 515 617 500 l 204 485 b 111 390 153 485 111 442 z "},"ツ":{"ha":1214,"x_min":0,"x_max":0,"o":"m 111 550 b 294 367 111 449 193 367 b 478 550 396 367 478 449 l 478 744 b 294 928 478 846 396 928 b 111 744 193 928 111 846 z m 569 489 b 664 394 569 436 611 394 b 758 489 715 394 758 436 l 758 804 b 664 897 758 856 715 897 b 569 804 611 897 569 856 z m 481 74 b 572 0 490 31 529 0 b 593 3 579 0 586 1 b 1103 744 931 78 1103 365 b 1008 839 1103 796 1061 839 b 914 744 957 839 914 796 b 553 186 914 450 806 243 b 481 74 501 175 469 125 z "},"ッ":{"ha":965,"x_min":0,"x_max":0,"o":"m 111 413 b 249 275 111 338 172 275 b 386 413 324 275 386 338 l 386 558 b 249 696 386 635 324 696 b 111 558 172 696 111 635 z m 454 367 b 525 296 454 328 486 296 b 596 367 564 296 596 328 l 596 603 b 525 674 596 642 564 674 b 454 603 486 674 454 642 z m 388 56 b 457 0 396 22 425 0 b 472 1 463 0 467 0 b 854 558 726 58 854 274 b 783 629 854 597 822 629 b 713 558 744 629 713 597 b 442 140 713 338 632 182 b 388 56 404 131 379 93 z "},"ヅ":{"ha":1308,"x_min":0,"x_max":0,"o":"m 801 897 b 896 992 801 950 843 992 b 989 897 947 992 989 950 b 896 804 989 846 947 804 b 801 897 843 804 801 846 z m 1010 897 b 1104 992 1010 950 1051 992 b 1197 897 1156 992 1197 950 b 1104 804 1197 846 1156 804 b 1010 897 1051 804 1010 846 z m 111 550 l 111 744 b 294 928 111 846 193 928 b 479 744 396 928 479 846 l 479 550 b 294 367 479 449 396 367 b 111 550 193 367 111 449 z m 571 489 l 571 804 b 664 897 571 856 613 897 b 758 804 717 897 758 856 l 758 489 b 664 394 758 436 717 394 b 571 489 613 394 571 436 z m 482 74 b 574 0 492 31 531 0 b 594 3 581 0 588 1 b 1104 744 932 78 1104 365 b 1101 760 1104 750 1103 754 b 1000 807 1061 760 1025 779 b 917 761 979 783 950 767 b 915 744 915 756 915 750 b 553 186 915 450 807 243 b 482 74 503 175 471 125 z "},"テ":{"ha":1215,"x_min":0,"x_max":0,"o":"m 150 744 b 333 561 150 643 232 561 l 882 561 b 1065 744 983 561 1065 643 b 882 928 1065 846 983 928 l 333 928 b 150 744 232 928 150 846 z m 111 390 b 206 296 111 338 154 296 l 578 296 b 439 185 551 238 510 207 b 376 67 389 168 361 115 b 467 0 389 26 426 0 b 494 4 476 0 486 1 b 776 296 646 51 735 143 l 1010 296 b 1104 390 1061 296 1104 338 b 1010 485 1104 442 1061 485 l 206 485 b 111 390 154 485 111 442 z "},"デ":{"ha":1308,"x_min":0,"x_max":0,"o":"m 800 897 b 894 992 800 950 842 992 b 989 897 946 992 989 950 b 894 804 989 846 946 804 b 800 897 842 804 800 846 z m 1008 897 b 1103 992 1008 950 1050 992 b 1197 897 1154 992 1197 950 b 1103 804 1197 846 1154 804 b 1008 897 1050 804 1008 846 z m 149 744 b 332 561 149 643 231 561 l 881 561 b 1064 744 982 561 1064 643 b 1063 765 1064 751 1064 758 b 999 807 1038 774 1015 788 b 894 760 974 778 936 760 b 756 897 818 760 756 822 b 760 928 756 908 757 918 l 332 928 b 149 744 231 928 149 846 z m 111 390 b 204 296 111 338 153 296 l 576 296 b 438 185 550 238 508 207 b 375 67 388 168 360 115 b 465 0 389 26 425 0 b 493 4 475 0 485 1 b 775 296 644 51 733 143 l 1008 296 b 1103 390 1060 296 1103 338 b 1008 485 1103 442 1060 485 l 204 485 b 111 390 153 485 111 442 z "},"ト":{"ha":860,"x_min":0,"x_max":0,"o":"m 111 94 b 204 0 111 42 153 0 b 299 94 257 0 299 42 l 299 292 l 533 249 b 746 396 633 231 728 296 b 597 608 764 496 697 590 l 299 661 l 299 833 b 204 928 299 886 257 928 b 111 833 153 928 111 886 z "},"ド":{"ha":879,"x_min":0,"x_max":0,"o":"m 111 94 b 206 0 111 42 153 0 b 299 94 257 0 299 42 l 299 292 l 533 249 b 746 396 633 231 728 296 b 599 608 764 496 697 590 l 299 661 l 299 833 b 206 928 299 886 257 928 b 111 833 153 928 111 886 z m 372 808 b 467 715 372 757 415 715 b 561 808 518 715 561 757 b 467 903 561 861 518 903 b 372 808 415 903 372 861 z m 581 808 b 675 715 581 757 622 715 b 768 808 726 715 768 757 b 675 903 768 861 726 903 b 581 808 622 903 581 861 z "},"ナ":{"ha":1215,"x_min":0,"x_max":0,"o":"m 111 638 b 294 453 111 536 193 453 l 603 453 b 428 185 590 304 549 222 b 367 67 378 168 350 115 b 456 0 379 26 415 0 b 485 4 465 0 475 1 b 792 453 697 71 771 217 l 919 453 b 1104 638 1021 453 1104 536 b 919 821 1104 739 1021 821 l 797 821 l 797 897 b 704 992 797 950 756 992 b 610 897 651 992 610 950 l 610 821 l 294 821 b 111 638 193 821 111 739 z "},"ニ":{"ha":1160,"x_min":0,"x_max":0,"o":"m 161 638 b 344 453 161 536 243 453 l 815 453 b 999 638 917 453 999 536 b 815 821 999 739 917 821 l 344 821 b 161 638 243 821 161 739 z m 111 124 b 206 29 111 72 154 29 l 954 29 b 1049 124 1007 29 1049 72 b 954 218 1049 176 1007 218 l 206 218 b 111 124 154 218 111 176 z "},"ヌ":{"ha":1168,"x_min":0,"x_max":0,"o":"m 111 94 b 206 0 111 42 154 0 b 658 161 300 0 468 24 l 861 74 b 985 122 910 53 965 75 b 936 246 1006 171 983 225 l 815 299 b 1044 676 935 424 1018 563 b 1057 744 1053 697 1057 719 b 874 928 1057 846 975 928 l 325 928 b 142 744 224 928 142 846 b 325 561 142 643 224 561 l 786 561 b 663 413 754 514 714 463 b 629 381 651 401 640 390 l 417 472 b 292 424 368 493 313 471 b 342 300 272 375 293 319 l 447 253 b 206 189 365 211 283 189 b 111 94 154 189 111 146 z "},"ネ":{"ha":1211,"x_min":0,"x_max":0,"o":"m 111 213 b 204 128 115 164 157 128 l 214 128 b 513 211 329 140 429 171 l 513 94 b 607 0 513 42 554 0 b 700 94 658 0 700 42 l 700 228 l 971 117 b 1093 169 1019 97 1074 121 b 1042 292 1113 218 1090 272 l 775 401 b 876 531 815 443 849 486 b 1060 714 978 531 1060 613 b 876 897 1060 815 978 897 l 700 897 b 607 992 700 950 658 992 b 513 897 554 992 513 950 l 336 897 b 153 714 235 897 153 815 b 336 531 153 613 235 531 l 638 531 b 194 315 546 433 399 336 b 111 213 143 311 106 264 z "},"ノ":{"ha":1096,"x_min":0,"x_max":0,"o":"m 111 183 b 294 367 111 285 193 367 b 618 744 494 367 618 563 b 801 928 618 846 700 928 b 985 744 903 928 985 846 b 294 0 985 333 675 0 b 111 183 193 0 111 82 z "},"ハ":{"ha":1215,"x_min":0,"x_max":0,"o":"m 161 58 b 296 0 197 19 246 0 b 421 50 340 0 386 17 b 694 776 613 231 694 447 b 511 960 694 878 613 960 b 328 776 410 960 328 878 b 169 317 328 550 285 425 b 161 58 96 247 92 132 z m 840 619 l 917 81 b 1010 0 922 35 964 0 b 1022 1 1014 0 1018 0 b 1103 107 1074 8 1110 56 l 1028 646 b 921 726 1019 697 972 733 b 840 619 869 719 833 671 z "},"バ":{"ha":1215,"x_min":0,"x_max":0,"o":"m 707 897 b 801 992 707 950 749 992 b 896 897 853 992 896 950 b 801 804 896 846 853 804 b 707 897 749 804 707 846 z m 915 897 b 1010 992 915 950 957 992 b 1104 897 1061 992 1104 950 b 1010 804 1104 846 1061 804 b 915 897 957 804 915 846 z m 161 58 b 296 0 197 19 246 0 b 421 50 340 0 386 17 b 694 776 613 231 694 447 b 511 960 694 878 613 960 b 328 776 410 960 328 878 b 169 317 328 550 285 425 b 161 58 96 247 92 132 z m 840 619 l 917 81 b 1010 0 922 35 963 0 b 1022 1 1014 0 1018 0 b 1103 107 1074 8 1110 56 l 1026 646 b 921 726 1019 697 972 733 b 840 619 869 719 833 671 z "},"パ":{"ha":1268,"x_min":0,"x_max":0,"o":"m 860 897 b 1008 749 860 815 926 749 b 1157 897 1090 749 1157 815 b 1008 1046 1157 979 1090 1046 b 860 897 926 1046 860 979 z m 161 58 b 294 0 197 19 246 0 b 421 50 340 0 385 17 b 693 776 613 231 693 447 b 510 960 693 878 611 960 b 326 776 408 960 326 878 b 169 317 326 550 285 425 b 161 58 94 247 92 132 z m 950 897 b 1008 957 950 931 976 957 b 1068 897 1042 957 1068 931 b 1008 839 1068 865 1042 839 b 950 897 976 839 950 865 z m 840 619 l 915 81 b 1008 0 922 33 963 0 b 1022 1 1013 0 1017 0 b 1101 107 1074 8 1110 56 l 1026 646 b 919 725 1019 697 971 733 b 840 619 868 718 832 671 z "},"ヒ":{"ha":1058,"x_min":0,"x_max":0,"o":"m 111 257 b 368 0 111 115 226 0 l 853 0 b 947 94 906 0 947 42 b 853 189 947 146 906 189 l 368 189 b 300 257 331 189 300 219 l 300 385 l 786 497 b 924 717 885 519 947 618 b 704 854 901 815 803 878 l 300 761 l 300 897 b 206 992 300 950 258 992 b 111 897 154 992 111 950 z "},"ビ":{"ha":1151,"x_min":0,"x_max":0,"o":"m 111 257 b 367 0 111 115 225 0 l 853 0 b 946 94 904 0 946 42 b 853 189 946 146 904 189 l 367 189 b 299 257 329 189 299 219 l 299 385 l 785 497 b 922 717 883 519 946 618 b 903 767 919 735 913 751 b 842 807 879 775 858 789 b 738 760 817 778 779 760 b 615 835 685 760 639 790 l 299 761 l 299 897 b 206 992 299 950 257 992 b 111 897 153 992 111 950 z m 644 897 b 738 992 644 950 686 992 b 832 897 790 992 832 950 b 738 804 832 846 790 804 b 644 897 686 804 644 846 z m 853 897 b 946 992 853 950 894 992 b 1040 897 999 992 1040 950 b 946 804 1040 846 999 804 b 853 897 894 804 853 846 z "},"ピ":{"ha":1111,"x_min":0,"x_max":0,"o":"m 704 897 b 853 749 704 815 771 749 b 1000 897 933 749 1000 815 b 853 1046 1000 979 933 1046 b 704 897 771 1046 704 979 z m 111 257 b 367 0 111 115 226 0 l 853 0 b 946 94 904 0 946 42 b 853 189 946 146 904 189 l 367 189 b 299 257 329 189 299 219 l 299 385 l 785 497 b 922 717 883 519 946 618 l 922 718 b 853 704 900 710 876 704 b 667 846 764 704 689 764 l 299 761 l 299 897 b 206 992 299 950 257 992 b 111 897 153 992 111 950 z m 793 897 b 853 957 793 931 819 957 b 911 897 885 957 911 931 b 853 839 911 865 885 839 b 793 897 819 839 793 865 z "},"フ":{"ha":1138,"x_min":0,"x_max":0,"o":"m 111 744 b 294 561 111 643 193 561 l 814 561 b 736 376 797 499 772 435 b 414 189 657 251 549 189 b 319 94 361 189 319 146 b 414 0 319 42 361 0 b 1026 744 861 0 1026 457 l 1026 754 b 843 928 1021 850 942 928 l 294 928 b 111 744 193 928 111 846 z "},"ブ":{"ha":1269,"x_min":0,"x_max":0,"o":"m 763 897 b 857 992 763 950 804 992 b 950 897 908 992 950 950 b 857 804 950 846 908 804 b 763 897 804 804 763 846 z m 971 897 b 1065 992 971 950 1013 992 b 1158 897 1117 992 1158 950 b 1065 804 1158 846 1117 804 b 971 897 1013 804 971 846 z m 111 744 b 294 561 111 643 193 561 l 813 561 b 735 376 797 499 772 435 b 414 189 657 251 549 189 b 319 94 361 189 319 146 b 414 0 319 42 361 0 b 1026 744 860 0 1026 457 l 1026 754 b 1025 765 1026 758 1025 761 b 961 807 1000 774 978 788 b 857 760 935 778 899 760 b 718 897 781 760 718 822 b 722 928 718 908 719 918 l 294 928 b 111 744 193 928 111 846 z "},"プ":{"ha":1229,"x_min":0,"x_max":0,"o":"m 822 897 b 971 749 822 815 889 749 b 1118 897 1053 749 1118 815 b 971 1046 1118 979 1053 1046 b 822 897 889 1046 822 979 z m 911 897 b 971 957 911 931 938 957 b 1029 897 1003 957 1029 931 b 971 839 1029 865 1003 839 b 911 897 938 839 911 865 z m 111 743 b 294 560 111 643 193 560 l 813 560 b 735 376 797 499 772 433 b 414 189 657 251 549 189 b 319 94 361 189 319 146 b 414 0 319 42 361 0 b 1026 713 844 0 1015 425 b 971 704 1008 707 990 704 b 778 897 864 704 778 792 b 781 928 778 907 779 918 l 294 928 b 111 743 193 928 111 844 z "},"ヘ":{"ha":1215,"x_min":0,"x_max":0,"o":"m 142 519 b 194 265 86 435 110 321 b 294 236 225 246 260 236 b 449 318 354 236 413 265 l 604 556 l 929 43 b 1010 0 947 15 978 0 b 1060 15 1026 0 1044 4 b 1089 144 1104 43 1117 101 l 671 800 b 601 888 658 835 635 865 b 347 833 517 943 403 918 z "},"ベ":{"ha":1214,"x_min":0,"x_max":0,"o":"m 142 519 b 194 265 86 435 110 321 b 294 236 225 246 260 236 b 449 318 354 236 413 265 l 603 556 l 929 43 b 1008 0 947 15 978 0 b 1060 15 1026 0 1043 4 b 1089 144 1103 43 1117 101 l 750 676 b 711 671 738 672 725 671 b 574 808 635 671 574 732 b 599 889 574 839 582 865 b 347 833 514 942 401 918 z m 617 808 b 711 903 617 861 660 903 b 806 808 764 903 806 861 b 711 714 806 757 764 714 b 617 808 660 714 617 757 z m 825 808 b 919 903 825 861 868 903 b 1014 808 972 903 1014 861 b 919 714 1014 757 972 714 b 825 808 868 714 825 757 z "},"ペ":{"ha":1215,"x_min":0,"x_max":0,"o":"m 771 808 b 919 660 771 726 838 660 b 1068 808 1001 660 1068 726 b 919 957 1068 890 1001 957 b 771 808 838 957 771 890 z m 142 519 b 194 265 86 435 110 321 b 294 236 225 246 260 236 b 449 318 354 236 413 265 l 604 556 l 929 43 b 1010 0 947 15 978 0 b 1060 15 1026 0 1044 4 b 1089 144 1104 43 1117 101 l 671 800 b 601 888 658 835 635 865 b 347 833 517 943 403 918 z m 861 808 b 919 868 861 842 888 868 b 979 808 953 868 979 842 b 919 750 979 776 953 750 b 861 808 888 750 861 776 z "},"ホ":{"ha":1314,"x_min":0,"x_max":0,"o":"m 161 692 b 344 508 161 590 243 508 l 560 508 l 560 189 b 465 94 507 189 465 146 b 560 0 465 42 507 0 l 654 0 b 749 94 707 0 749 42 l 749 508 l 969 508 b 1153 692 1071 508 1153 590 b 969 875 1153 793 1071 875 l 749 875 l 749 897 b 654 992 749 950 707 992 b 560 897 603 992 560 950 l 560 875 l 344 875 b 161 692 243 875 161 793 z m 114 71 b 206 0 125 28 164 0 b 229 3 214 0 221 1 b 478 360 374 40 467 174 b 390 460 482 413 442 457 b 290 372 338 464 293 424 b 182 186 288 324 271 208 b 114 71 132 172 101 121 z m 836 360 b 1085 3 847 174 940 40 b 1108 0 1093 1 1100 0 b 1200 71 1150 0 1189 28 b 1132 186 1213 121 1182 172 b 1024 372 1043 208 1026 324 b 924 460 1021 424 976 463 b 836 360 872 457 832 413 z "},"ボ":{"ha":1358,"x_min":0,"x_max":0,"o":"m 160 692 b 344 508 160 590 243 508 l 560 508 l 560 189 l 558 189 b 464 94 507 189 464 146 b 558 0 464 42 507 0 l 654 0 b 749 94 706 0 749 42 l 749 508 l 969 508 b 1153 692 1071 508 1153 590 b 1139 761 1153 717 1147 739 b 1049 807 1103 764 1071 782 b 944 760 1022 778 986 760 b 808 875 875 760 818 810 l 749 875 l 749 897 b 654 992 749 950 706 992 b 560 897 601 992 560 950 l 560 875 l 344 875 b 160 692 243 875 160 793 z m 850 897 b 944 992 850 950 892 992 b 1039 897 996 992 1039 950 b 944 804 1039 846 996 804 b 850 897 892 804 850 846 z m 1058 897 b 1153 992 1058 950 1100 992 b 1247 897 1204 992 1247 950 b 1153 804 1247 846 1204 804 b 1058 897 1100 804 1058 846 z m 114 71 b 206 0 125 28 163 0 b 229 3 213 0 221 1 b 478 360 372 40 465 174 b 389 460 481 413 442 457 b 289 372 338 464 293 424 b 182 186 286 324 269 208 b 114 71 131 172 100 121 z m 835 360 b 1085 3 847 174 940 40 b 1108 0 1092 1 1100 0 b 1199 71 1150 0 1188 28 b 1132 186 1213 121 1182 172 b 1024 372 1043 208 1026 324 b 924 460 1019 424 975 463 b 835 360 871 457 832 413 z "},"ポ":{"ha":1318,"x_min":0,"x_max":0,"o":"m 910 897 b 1058 749 910 815 976 749 b 1207 897 1140 749 1207 815 b 1058 1046 1207 979 1140 1046 b 910 897 976 1046 910 979 z m 161 692 b 344 508 161 590 243 508 l 560 508 l 560 189 b 465 94 507 189 465 146 b 560 0 465 42 507 0 l 654 0 b 749 94 706 0 749 42 l 749 508 l 969 508 b 1153 692 1071 508 1153 590 b 1149 728 1153 704 1151 715 b 1058 704 1122 713 1092 704 b 867 875 960 704 878 779 l 749 875 l 749 897 b 654 992 749 950 706 992 b 560 897 603 992 560 950 l 560 875 l 344 875 b 161 692 243 875 161 793 z m 999 897 b 1058 957 999 931 1025 957 b 1117 897 1090 957 1117 931 b 1058 839 1117 865 1090 839 b 999 897 1025 839 999 865 z m 114 71 b 206 0 125 28 164 0 b 229 3 214 0 221 1 b 478 360 374 40 467 174 b 390 460 481 411 442 457 b 290 372 338 463 293 424 b 182 185 288 324 271 208 b 114 71 132 172 101 121 z m 835 360 b 1085 3 847 174 940 40 b 1108 0 1092 1 1100 0 b 1199 71 1150 0 1188 28 b 1132 185 1213 121 1182 172 b 1024 372 1043 208 1026 324 b 924 460 1019 424 975 463 b 835 360 871 457 832 411 z "},"マ":{"ha":1215,"x_min":0,"x_max":0,"o":"m 111 697 b 294 513 111 596 193 513 l 826 513 b 571 357 768 450 682 392 l 482 444 b 349 443 444 481 385 479 b 350 310 313 406 313 346 l 639 26 b 704 0 657 8 681 0 b 772 28 729 0 753 10 b 771 161 808 65 807 125 l 718 213 b 1104 697 963 321 1104 528 l 1104 700 b 919 881 1101 800 1021 881 l 294 881 b 111 697 193 881 111 799 z "},"ミ":{"ha":1128,"x_min":0,"x_max":0,"o":"m 163 806 b 339 615 158 704 238 619 b 749 571 550 607 747 571 b 782 568 760 568 771 568 b 963 718 869 568 946 629 b 817 932 982 817 915 913 b 353 982 807 933 592 974 b 163 806 251 986 167 907 z m 251 443 b 342 344 250 390 290 347 b 765 299 561 336 763 299 b 782 297 771 297 776 297 b 875 374 826 297 867 329 b 800 485 885 425 851 475 b 350 533 790 486 582 525 b 251 443 297 535 254 494 z m 111 174 b 203 78 110 122 151 79 b 904 1 565 69 901 3 b 924 0 911 0 917 0 b 1015 76 967 0 1006 31 b 942 186 1025 126 993 176 b 207 265 928 189 588 257 b 111 174 156 267 113 226 z "},"ム":{"ha":1197,"x_min":0,"x_max":0,"o":"m 143 282 b 189 32 86 200 107 89 b 292 0 221 10 257 0 b 415 49 336 0 382 17 b 900 75 532 58 721 72 l 908 56 b 994 0 924 21 958 0 b 1031 8 1006 0 1018 3 b 1079 129 1078 28 1099 82 l 1046 204 l 1046 206 l 928 479 b 806 526 907 525 853 547 b 757 406 758 507 738 451 l 821 258 b 536 244 721 256 621 250 b 719 757 597 364 674 543 b 582 971 742 854 679 950 b 367 833 485 992 389 931 b 143 282 299 514 146 288 z "},"メ":{"ha":1125,"x_min":0,"x_max":0,"o":"m 111 183 b 296 0 111 82 194 0 b 747 183 468 0 626 69 l 861 92 b 921 71 879 78 900 71 b 994 107 947 71 975 83 b 979 239 1026 147 1019 207 l 868 328 b 986 744 942 447 986 590 b 803 928 986 846 904 928 b 618 744 701 928 618 846 b 576 561 618 682 604 618 l 457 657 b 325 642 417 689 357 683 b 339 510 292 601 299 542 l 456 417 b 296 367 411 386 357 367 b 111 183 194 367 111 285 z "},"モ":{"ha":1215,"x_min":0,"x_max":0,"o":"m 111 392 b 206 299 111 340 154 299 l 350 299 l 350 257 b 606 0 350 115 465 0 l 1010 0 b 1104 94 1061 0 1104 42 b 1010 189 1104 146 1061 189 l 606 189 b 538 257 568 189 538 219 l 538 299 l 1010 299 b 1104 392 1061 299 1104 340 b 1010 486 1104 444 1061 486 l 538 486 l 538 561 l 861 561 b 1044 744 963 561 1044 643 b 861 928 1044 846 963 928 l 350 928 b 167 744 249 928 167 846 b 350 561 167 643 249 561 l 350 486 l 206 486 b 111 392 154 486 111 444 z "},"ヤ":{"ha":1206,"x_min":0,"x_max":0,"o":"m 115 521 b 293 376 133 435 208 376 b 331 379 306 376 318 376 l 406 396 l 485 71 b 575 0 494 29 533 0 b 597 3 582 0 590 1 b 665 115 647 15 678 65 l 589 433 l 829 483 b 785 414 818 460 804 436 b 796 282 751 375 757 315 b 857 260 814 268 835 260 b 928 293 883 260 910 272 b 1044 561 1001 381 1032 483 b 1090 722 1083 603 1103 663 b 875 864 1069 821 974 885 l 504 786 l 474 911 b 361 981 461 961 411 992 b 292 867 311 968 281 918 l 321 749 l 257 736 b 115 521 158 715 94 619 z "},"ャ":{"ha":967,"x_min":0,"x_max":0,"o":"m 114 394 b 249 285 128 329 185 285 b 276 288 258 285 268 285 l 335 299 l 393 54 b 463 0 401 21 431 0 b 479 1 468 0 474 0 b 531 88 517 11 540 49 l 472 328 l 654 365 b 621 313 646 347 635 329 b 629 214 596 283 600 239 b 675 197 643 203 660 197 b 729 222 696 197 715 206 b 818 425 785 288 808 365 b 853 547 847 457 863 501 b 690 654 838 621 764 669 l 408 596 l 385 689 b 300 742 376 728 338 751 b 247 657 263 732 239 694 l 269 567 l 221 557 b 114 394 146 542 99 468 z "},"ユ":{"ha":1214,"x_min":0,"x_max":0,"o":"m 111 157 b 204 63 111 104 153 63 l 1008 63 b 1103 157 1060 63 1103 104 b 1008 250 1103 208 1060 250 l 881 250 l 936 546 b 1003 688 978 579 1003 631 b 819 871 1003 789 921 871 l 364 871 b 181 688 263 871 181 789 b 364 504 181 586 263 504 l 736 504 l 689 250 l 204 250 b 111 157 153 250 111 208 z "},"ュ":{"ha":967,"x_min":0,"x_max":0,"o":"m 111 117 b 182 46 111 78 143 46 l 785 46 b 856 117 824 46 856 78 b 785 188 856 156 824 188 l 689 188 l 731 410 b 781 515 761 435 781 472 b 643 653 781 592 719 653 l 301 653 b 164 515 225 653 164 592 b 301 378 164 440 225 378 l 581 378 l 546 188 l 182 188 b 111 117 143 188 111 156 z "},"ヨ":{"ha":1160,"x_min":0,"x_max":0,"o":"m 111 124 b 204 29 111 72 153 29 l 885 29 b 954 0 903 11 926 0 b 1049 94 1006 0 1049 42 l 1049 743 b 864 926 1049 844 965 926 l 294 926 b 111 743 193 926 111 844 b 294 560 111 642 193 560 l 860 560 l 860 483 l 304 483 b 210 389 251 483 210 442 b 304 294 210 338 251 294 l 860 294 l 860 218 l 204 218 b 111 124 153 218 111 176 z "},"ョ":{"ha":926,"x_min":0,"x_max":0,"o":"m 111 93 b 182 22 111 54 143 22 l 693 22 b 744 0 706 8 724 0 b 815 71 783 0 815 32 l 815 557 b 678 696 815 633 753 696 l 249 696 b 111 557 174 696 111 633 b 249 419 111 482 174 419 l 674 419 l 674 363 l 257 363 b 186 292 218 363 186 331 b 257 221 186 253 218 221 l 674 221 l 674 164 l 182 164 b 111 93 143 164 111 132 z "},"ラ":{"ha":1214,"x_min":0,"x_max":0,"o":"m 190 744 b 374 928 190 846 272 928 l 840 928 b 1024 744 942 928 1024 846 b 840 561 1024 643 942 561 l 374 561 b 190 744 272 561 190 643 z m 111 422 b 206 517 111 474 153 517 l 1008 517 b 1103 422 1061 517 1103 474 b 933 89 1103 276 1044 161 b 544 0 840 29 714 0 b 450 94 493 0 450 42 b 544 189 450 146 493 189 b 900 328 788 189 871 260 l 206 328 b 111 422 153 328 111 369 z "},"リ":{"ha":957,"x_min":0,"x_max":0,"o":"m 383 74 b 475 0 393 31 432 0 b 494 3 482 0 488 1 b 846 496 728 53 846 219 l 846 897 b 751 992 846 950 803 992 b 657 897 699 992 657 950 l 657 496 b 456 186 657 307 599 218 b 383 74 404 175 372 125 z m 111 463 b 294 279 111 361 193 279 b 478 463 396 279 478 361 l 478 758 b 294 943 478 860 396 943 b 111 758 193 943 111 860 z "},"ル":{"ha":1360,"x_min":0,"x_max":0,"o":"m 685 94 b 772 1 685 44 722 4 b 797 0 781 0 788 0 b 1243 292 926 0 1157 60 b 1189 413 1261 340 1238 394 b 1067 357 1139 431 1085 406 b 872 197 1028 253 940 213 l 872 897 b 779 992 872 950 831 992 b 685 897 726 992 685 950 z m 160 60 b 294 0 196 21 244 0 b 419 49 339 0 383 17 b 621 649 553 174 621 375 b 438 832 621 750 539 832 b 254 649 336 832 254 750 b 169 318 254 492 224 368 b 160 60 96 250 90 133 z "},"レ":{"ha":1036,"x_min":0,"x_max":0,"o":"m 111 183 b 282 1 111 86 186 7 b 294 0 286 0 290 0 b 906 267 482 0 721 31 b 890 399 938 307 931 367 b 757 382 849 431 789 424 b 478 206 683 288 596 232 l 478 808 b 294 992 478 910 396 992 b 111 808 193 992 111 910 z "},"ロ":{"ha":1160,"x_min":0,"x_max":0,"o":"m 111 94 b 206 0 111 42 154 0 b 275 29 233 0 257 11 l 886 29 b 956 0 904 11 928 0 b 1049 94 1007 0 1049 42 l 1049 697 b 865 881 1049 799 967 881 l 296 881 b 111 697 194 881 111 799 z m 300 218 l 300 514 l 861 514 l 861 218 z "},"ワ":{"ha":1138,"x_min":0,"x_max":0,"o":"m 111 496 b 204 401 111 444 153 401 b 299 496 257 401 299 444 l 299 561 l 826 561 b 765 351 815 476 794 407 b 482 189 708 240 618 189 b 388 94 429 189 388 146 b 482 0 388 42 429 0 b 933 264 686 0 843 92 b 1026 744 996 385 1026 542 l 1026 754 b 843 928 1021 850 942 928 l 294 928 b 111 754 196 928 117 850 z "},"ヮ":{"ha":910,"x_min":0,"x_max":0,"o":"m 111 372 b 182 301 111 333 143 301 b 253 372 221 301 253 333 l 253 421 l 649 421 b 603 264 640 358 625 306 b 390 142 560 181 492 142 b 319 71 351 142 319 110 b 390 0 319 32 351 0 b 728 199 543 0 661 68 b 799 558 775 289 799 407 l 799 565 b 661 696 794 638 735 696 l 249 696 b 113 565 175 696 115 638 b 111 558 111 563 111 561 z "},"ヷ":{"ha":1271,"x_min":0,"x_max":0,"o":"m 763 897 b 857 992 763 950 806 992 b 951 897 908 992 951 950 b 857 804 951 846 908 804 b 763 897 806 804 763 846 z m 971 897 b 1065 992 971 950 1014 992 b 1160 897 1117 992 1160 950 b 1065 804 1160 846 1117 804 b 971 897 1014 804 971 846 z m 111 496 b 206 401 111 444 153 401 b 300 496 257 401 300 444 l 300 561 l 828 561 b 767 351 815 476 796 407 b 482 189 708 240 618 189 b 388 94 431 189 388 146 b 482 0 388 42 431 0 b 933 264 688 0 843 92 b 1028 744 997 385 1028 542 b 1026 754 1028 747 1028 750 b 1025 765 1026 758 1026 761 b 961 807 1000 774 978 788 b 857 760 936 778 899 760 b 719 897 781 760 719 822 b 722 928 719 908 719 918 l 294 928 b 111 754 197 928 117 850 z "},"ヰ":{"ha":1128,"x_min":0,"x_max":0,"o":"m 111 238 b 206 144 111 186 153 144 l 669 144 l 669 94 b 764 0 669 42 713 0 b 858 94 817 0 858 42 l 858 144 l 922 144 b 1017 238 975 144 1017 186 b 922 332 1017 290 975 332 l 858 332 l 858 518 b 997 696 938 539 997 611 b 858 874 997 782 938 854 l 858 897 b 764 992 858 950 817 992 b 669 897 713 992 669 950 l 669 881 l 314 881 b 131 696 213 881 131 797 b 268 519 131 611 189 539 l 268 332 l 206 332 b 111 238 153 332 111 290 z m 456 332 l 456 513 l 669 513 l 669 332 z "},"ヸ":{"ha":1178,"x_min":0,"x_max":0,"o":"m 669 897 b 764 992 669 950 713 992 b 858 897 817 992 858 950 b 764 804 858 846 817 804 b 669 897 713 804 669 846 z m 878 897 b 972 992 878 950 921 992 b 1067 897 1025 992 1067 950 b 972 804 1067 846 1025 804 b 878 897 921 804 878 846 z m 111 238 b 204 144 111 186 153 144 l 669 144 l 669 94 b 764 0 669 42 713 0 b 858 94 817 0 858 42 l 858 144 l 922 144 b 1017 238 975 144 1017 186 b 922 332 1017 290 975 332 l 858 332 l 858 518 b 997 696 938 539 997 611 b 986 761 997 719 993 740 b 972 760 981 760 976 760 b 868 807 931 760 893 778 b 764 760 843 778 806 760 b 628 881 694 760 636 813 l 314 881 b 131 696 213 881 131 797 b 268 519 131 611 189 539 l 268 332 l 204 332 b 111 238 153 332 111 290 z m 456 332 l 456 513 l 669 513 l 669 332 z "},"ヱ":{"ha":1214,"x_min":0,"x_max":0,"o":"m 138 697 b 321 514 138 596 219 514 l 742 514 l 725 489 b 749 358 696 446 706 388 b 803 342 765 346 785 342 b 881 382 832 342 863 356 l 992 543 b 1075 697 1042 575 1075 632 b 892 881 1075 799 993 881 l 321 881 b 138 697 219 881 138 799 z m 111 124 b 206 29 111 72 153 29 l 1008 29 b 1103 124 1061 29 1103 72 b 1008 218 1103 176 1061 218 l 701 218 l 701 361 b 607 456 701 413 658 456 b 513 361 554 456 513 413 l 513 218 l 206 218 b 111 124 153 218 111 176 z "},"ヹ":{"ha":1308,"x_min":0,"x_max":0,"o":"m 800 897 b 894 992 800 950 843 992 b 989 897 947 992 989 950 b 894 804 989 846 947 804 b 800 897 843 804 800 846 z m 1008 897 b 1103 992 1008 950 1051 992 b 1197 897 1156 992 1197 950 b 1103 804 1197 846 1156 804 b 1008 897 1051 804 1008 846 z m 139 697 b 322 514 139 596 221 514 l 742 514 l 725 489 b 750 358 696 446 707 388 b 803 342 765 346 785 342 b 881 382 833 342 863 356 l 992 543 b 1076 697 1042 575 1076 632 b 1063 767 1076 721 1071 744 b 999 807 1038 774 1015 789 b 894 760 974 778 936 760 b 758 881 825 760 767 813 l 322 881 b 139 697 221 881 139 799 z m 111 124 b 206 29 111 72 153 29 l 1008 29 b 1103 124 1061 29 1103 72 b 1008 218 1103 176 1061 218 l 701 218 l 701 361 b 607 456 701 413 658 456 b 513 361 556 456 513 413 l 513 218 l 206 218 b 111 124 153 218 111 176 z "},"ヲ":{"ha":1138,"x_min":0,"x_max":0,"o":"m 111 744 b 294 561 111 643 193 561 l 826 561 b 811 478 822 532 818 504 l 286 478 b 192 383 235 478 192 436 b 286 290 192 332 235 290 l 725 290 b 482 189 668 221 590 189 b 388 94 429 189 388 146 b 482 0 388 42 429 0 b 933 264 688 0 843 92 b 1026 744 996 385 1026 542 l 1026 754 b 843 928 1021 850 942 928 l 294 928 b 111 744 193 928 111 846 z "},"ヺ":{"ha":1271,"x_min":0,"x_max":0,"o":"m 763 897 b 857 992 763 950 806 992 b 951 897 910 992 951 950 b 857 804 951 846 910 804 b 763 897 806 804 763 846 z m 971 897 b 1065 992 971 950 1014 992 b 1160 897 1118 992 1160 950 b 1065 804 1160 846 1118 804 b 971 897 1014 804 971 846 z m 111 744 b 294 561 111 643 193 561 l 828 561 b 813 478 824 532 818 504 l 286 478 b 193 383 235 478 193 436 b 286 290 193 332 235 290 l 726 290 b 482 189 669 221 590 189 b 389 94 431 189 389 146 b 482 0 389 42 431 0 b 933 264 688 0 843 92 b 1028 744 997 385 1028 542 b 1026 754 1028 747 1028 750 l 1026 765 b 961 807 1000 774 978 788 b 857 760 936 778 899 760 b 719 897 781 760 719 822 b 722 928 719 908 721 918 l 294 928 b 111 744 193 928 111 846 z "},"ン":{"ha":1182,"x_min":0,"x_max":0,"o":"m 111 674 b 294 490 111 572 193 490 l 488 490 b 672 674 589 490 672 572 b 488 857 672 775 589 857 l 294 857 b 111 674 193 857 111 775 z m 449 74 b 540 0 458 31 497 0 b 561 3 547 0 554 1 b 1071 744 899 78 1071 365 b 976 839 1071 796 1028 839 b 882 744 924 839 882 796 b 519 186 882 450 774 243 b 449 74 469 175 438 125 z "},"ヴ":{"ha":1290,"x_min":0,"x_max":0,"o":"m 111 460 b 206 365 111 408 153 365 b 300 460 257 365 300 408 l 300 508 l 863 508 b 518 186 824 329 714 231 b 446 74 467 175 435 125 b 538 0 456 31 494 0 b 558 3 544 0 551 1 b 1068 686 897 78 1068 307 l 1068 689 l 1068 692 b 1054 764 1068 718 1063 742 b 982 807 1025 771 1000 786 b 878 760 956 778 919 760 b 742 875 808 760 751 810 l 683 875 l 683 897 b 589 992 683 950 642 992 b 496 897 538 992 496 950 l 496 875 l 294 875 b 114 721 203 875 126 808 b 111 700 111 714 111 707 z m 783 897 b 878 992 783 950 825 992 b 971 897 929 992 971 950 b 878 804 971 846 929 804 b 783 897 825 804 783 846 z m 992 897 b 1086 992 992 950 1033 992 b 1179 897 1138 992 1179 950 b 1086 804 1179 846 1138 804 b 992 897 1033 804 992 846 z "}," ":{"ha":833,"x_min":0,"x_max":0,"o":""}}}
